<?xml version="1.0" encoding="utf-8"?>
<!-- Generator: Adobe Illustrator 16.0.0, SVG Export Plug-In . SVG Version: 6.00 Build 0)  -->
<!DOCTYPE svg PUBLIC "-//W3C//DTD SVG 1.0//EN" "http://www.w3.org/TR/2001/REC-SVG-20010904/DTD/svg10.dtd">
<svg version="1.0" id="Capa_1" xmlns="http://www.w3.org/2000/svg" xmlns:xlink="http://www.w3.org/1999/xlink" x="0px" y="0px"
	 width="200px" height="54.268px" viewBox="0 0 200 54.268" enable-background="new 0 0 200 54.268" xml:space="preserve">
<g>
	<path fill-rule="evenodd" clip-rule="evenodd" fill="#56BBBC" d="M0,50.622c6.131-13.244,12.264-26.486,18.391-39.731
		c1.219-2.636,2.433-5.274,3.613-7.927c0.88-1.977,2.251-2.986,4.524-2.906c3.312,0.116,6.631,0.077,9.945,0.012
		c1.947-0.038,3.206,0.793,3.987,2.535c5.282,11.775,10.595,23.536,15.857,35.32c1.861,4.167-0.808,7.768-5,7.488
		c-4.75-0.316-9.539-0.016-14.309-0.105c-1.491-0.028-2.294,0.393-2.929,1.817c-3.478,7.804-1.705,7.092-11.166,7.112
		c-6.308,0.013-12.618,0.097-18.921-0.074C2.649,54.125,1.331,53.122,0,52.563C0,51.917,0,51.27,0,50.622z M3.279,50.886
		c0.396,0.184,0.538,0.308,0.681,0.308c7.922,0.025,15.845,0.079,23.766-0.016c0.693-0.008,1.694-0.854,2.014-1.555
		C34.323,39.572,38.84,29.49,43.28,19.374c0.364-0.829,0.343-2.072,0-2.922c-1.596-3.962-3.286-7.894-5.147-11.736
		c-0.371-0.765-1.613-1.484-2.502-1.549c-2.734-0.201-5.5,0.046-8.239-0.116c-1.776-0.105-2.526,0.642-3.219,2.166
		C17.564,19.752,10.874,34.251,4.21,48.761C3.886,49.466,3.587,50.182,3.279,50.886z M45.637,21.48
		c-3.262,7.286-6.259,13.983-9.364,20.919c5.294,0,10.209,0.02,15.124-0.009c2.451-0.014,3.204-1.095,2.187-3.402
		C51.088,33.328,48.478,27.718,45.637,21.48z"/>
	<path fill-rule="evenodd" clip-rule="evenodd" fill="#56BBBC" d="M89.743,32.665c0,2.584,0.019,4.91-0.004,7.234
		c-0.038,3.783-1.566,5.341-5.279,5.351c-6.308,0.017-12.615,0.021-18.922-0.002c-3.129-0.012-4.738-1.421-4.755-4.524
		c-0.068-11.967-0.066-23.936-0.005-35.904c0.017-3.253,1.596-4.714,4.84-4.721c13.424-0.024,26.847-0.024,40.271-0.003
		c3.426,0.005,4.804,2.124,3.389,5.311c-3.699,8.33-7.49,16.618-11.2,24.943c-0.716,1.605-1.812,2.381-3.566,2.325
		C93.06,32.627,91.606,32.665,89.743,32.665z M86.845,3.016c-7.334,0-14.356,0.012-21.378-0.01
		c-1.415-0.004-1.804,0.771-1.797,1.997c0.011,2.021,0,4.043,0,6.065c0,9.543,0,19.085,0,28.628c0,1.34-0.076,2.644,1.908,2.631
		c6.389-0.042,12.778-0.025,19.167-0.01c1.587,0.004,2.124-0.841,2.106-2.297c-0.027-2.184-0.005-4.367-0.005-6.551
		C86.845,23.451,86.845,13.433,86.845,3.016z M89.888,3.169c0,3.931,0,7.687,0,11.625c3.598,0,7.057,0.04,10.511-0.041
		c0.535-0.013,1.318-0.449,1.542-0.906c1.684-3.453,3.256-6.96,4.969-10.678C101.072,3.169,95.605,3.169,89.888,3.169z
		 M100.186,18.081c-3.808,0-7.087,0-10.255,0c0,4.062,0,7.821,0,11.681c1.151,0,2.152,0.159,3.072-0.044
		c0.91-0.201,2.193-0.541,2.528-1.211C97.181,25.204,98.57,21.772,100.186,18.081z"/>
	<path fill-rule="evenodd" clip-rule="evenodd" fill="#56BBBC" d="M175.221,32.69c0,2.747,0.026,5.088-0.007,7.428
		c-0.044,3.227-1.676,4.995-4.902,5.032c-6.463,0.076-12.927,0.061-19.39,0.006c-2.912-0.024-4.229-1.33-4.553-4.246
		c-0.071-0.64-0.069-1.29-0.07-1.936c-0.004-10.826-0.011-21.651,0.001-32.478c0.006-5.192,1.245-6.41,6.439-6.41
		c13.896-0.001,27.795,0.16,41.687-0.085c4.989-0.088,6.65,3.776,4.897,7.582c-3.167,6.88-6.192,13.826-9.254,20.754
		c-1.283,2.904-3.508,4.322-6.644,4.349C180.779,32.708,178.133,32.69,175.221,32.69z M172.303,3.059
		c-5.603,0-10.92-0.042-16.237,0.009c-7.579,0.073-6.874-1.348-6.889,6.993c-0.018,9.777-0.007,19.555,0,29.332
		c0.001,1.404-0.071,2.833,2.026,2.821c6.303-0.036,12.605-0.009,18.909-0.02c1.44-0.003,2.212-0.619,2.208-2.205
		C172.289,27.795,172.303,15.601,172.303,3.059z M175.389,3.047c0,9.067,0,17.823,0,26.7c2.742,0,5.317-0.009,7.893,0.002
		c1.994,0.009,3.353-0.874,4.142-2.729c0.976-2.298,2.033-4.563,3.046-6.846c2.06-4.639,4.145-9.267,6.157-13.927
		c0.958-2.218,0.523-3.162-1.472-3.179C188.622,3.012,182.088,3.047,175.389,3.047z"/>
	<path fill-rule="evenodd" clip-rule="evenodd" fill="#56BBBC" d="M113.605,22.546c0-5.739-0.016-11.478,0.006-17.216
		c0.015-3.914,1.348-5.236,5.222-5.241c6.305-0.008,12.609-0.012,18.914,0.002c3.333,0.007,4.788,1.425,4.826,4.919
		c0.064,5.9,0.02,11.801,0.02,17.701c0,5.577,0.016,11.154-0.006,16.731c-0.017,4.34-1.479,5.759-5.874,5.764
		c-5.9,0.007-11.801,0.008-17.702,0c-3.864-0.006-5.381-1.515-5.399-5.443C113.585,34.024,113.605,28.286,113.605,22.546z
		 M139.666,22.714c0.012,0,0.023,0,0.035,0c0-5.662-0.036-11.324,0.021-16.985c0.019-1.849-0.398-2.775-2.576-2.721
		c-6.063,0.148-12.132,0.131-18.197,0.014c-2.007-0.039-2.463,0.725-2.453,2.559c0.061,11.324,0.057,22.648,0.004,33.972
		c-0.009,1.932,0.574,2.769,2.642,2.733c5.903-0.101,11.81-0.1,17.713-0.001c2.112,0.035,2.875-0.729,2.841-2.828
		C139.607,33.877,139.666,28.295,139.666,22.714z"/>
</g>
</svg>
