<?xml version="1.0" encoding="utf-8"?>
<!-- Generator: Adobe Illustrator 24.2.3, SVG Export Plug-In . SVG Version: 6.00 Build 0)  -->
<svg version="1.1" id="Capa_1" xmlns="http://www.w3.org/2000/svg" xmlns:xlink="http://www.w3.org/1999/xlink" x="0px" y="0px"
	 viewBox="0 0 200 67.4" style="enable-background:new 0 0 200 67.4;" xml:space="preserve">
<style type="text/css">
	.st0{fill:#56BBBC;}
	.st1{fill:#FFFFFF;}
</style>
<g>
	<path class="st0" d="M17.8,52.7c-0.5,0.8-1.7,0.6-2.4,1.3c0.1,1.3,1.6,0.6,2.1,1.5c-0.3,0.6-0.9,0.7-1.5,0.9
		c-0.8-0.2-1.2-1-1.8-1.3c-0.9,0-1.2,1.2-2.3,1.3c-0.4-0.1-0.9-0.3-1.5-0.8c0.3-1,1.9-0.1,2.2-1.6c-1.9-0.8-3.9-1.8-5.9-2.6
		c-1.8-0.7-2.9-1.9-3.1-3.8c0.5,0,1,0.3,1.6-0.2c-0.9,0.1-0.6-1.4-1.9-1.3c0.2,0.5,0.7,1,0.4,1.6c-0.3,0.1-0.5,0-0.7-0.2
		c-2-3.6-2.9-7.2-2.8-11.4c0.1-3,0.7-5.7,1.9-8.5c0.7,0.2,1.3,0.9,2,0.4c0.2,0.1,0.4,0.3,0.5,0.4c-0.8,2.4-1.9,4.7-1.5,7.4
		c3.5,0,6.7,0,10.2,0c0-0.9,0.3-1.7-0.1-2.4c-0.7-0.7-2.2,0.1-2.3-1.5c0.7-0.2,1.8,0.6,2.3-0.5c1.2-0.3,2.4,1.3,3.6-0.3
		c0.4-0.5-0.3-1.4,0.4-2c1.4,0.6,1.2,1.9,1.2,2.8c-0.8,1.5-2.3,0.7-3.3,1.2c-0.3,0.9-0.3,1.8,0,2.5c3.4,0,6.7,0,10.1,0
		c0-3.3-0.9-6-2.4-8.6c-0.3-0.5-1.2-1-0.5-1.8c0.4,0,0.9,0,1-0.6c-0.2-0.4-0.8,0.2-1-0.4c-0.2-0.3,0.2-0.8-0.3-1
		c-0.3,0.3-0.6,0.6-0.7,1c-0.8,0.4-1.2-0.4-1.6-0.7c-3-2.2-6.2-2.5-9.7-0.8c-0.5,0.2-0.9,0.9-1.7,0.4c-0.3-0.3-0.4-0.9-1-0.7
		c-0.1,0.9,0.7,0.5,1,0.7c-0.5,1.8-2.3,2.6-3,4.3C5,27.2,4.9,27,4.7,26.9c-0.3-0.6-0.8-0.8-1.6-1L3.2,26c0.9-2.7,3.5-4.2,5.1-6.4
		c-0.4-3.3,2-6.6,4.7-6.7c3.9-0.3,7.2,2.3,7.1,5.9c0,1.4,0.4,2.2,1.3,2.8c4.2,3.7,6.1,8.3,6.5,13.7c0.3,4.1-0.4,7.9-2.4,11.5
		c-1.5,2.7-3.5,4.7-6.5,5.6c-0.1-0.1-0.1-0.2-0.2-0.2c0-0.4,0.7-0.4,0.3-1.2c-0.7,0.4-1.8,0.5-2.4,1.5
		C17.2,52.6,17.4,52.7,17.8,52.7L17.8,52.7z M17.2,43.2c0-0.2-0.1-0.4-0.1-0.6c0.6-0.2,1.4-0.1,1.8,0.4c1,1.3,2.5,1.4,3.9,1.7
		c0.7-0.4,1.2-1,1.2-2.1c-1.4-0.5-2.9-0.8-4.5-1.2c-0.8-0.2-1.9,0-2.4-1c2.5-0.3,4.7,1.4,7.2,1.2c0.7-1.5,0.6-2.9,0.7-4.6
		c-3.5-0.3-6.8-0.2-10.2,0c-0.1,0.8-0.4,1.6,0.2,2.3c0.6,0.4,1.9,0.1,2.1,1.3c-0.9,0.3-1.7-0.7-2.5-0.4c-0.7,0.3-1.2,0.9-1.5,1.6
		c-0.9,0.2-0.3-1.3-1.7-1.2c-2,1.3-4.9,1-7.9,1.8c0.6,0.6,0.4,1.6,1.4,1.9c1.3,0.3,2.2-0.1,3-0.5c2.1-0.9,4.1-0.8,5.9,0.3
		c1-0.6,2.3-0.9,1.6-2.4c0.9-0.1,1.6,0.1,1.8,1.2c-0.3,0-0.5,0.1-0.5,0.4C16.9,43.4,17.1,43.2,17.2,43.2c-0.2,0.1-0.1,0.3,0.2,0.4
		C17.4,43.4,17.3,43.3,17.2,43.2z M23.9,26.4c-0.2,0-0.3,0.1-0.3,0.3c0,0,0.1,0.1,0.2,0.1C24,26.8,24.1,26.7,23.9,26.4
		c0.5,0.1,0.6-0.1,0.4-0.5C24,26,23.9,26.2,23.9,26.4z M8.6,51.3c0.2,0.1,0.5,0.2,0.7,0.4c0.5,0.5,1.2,1.2,2.1,0.8
		c-0.3-0.9-1.2-0.9-1.8-1.3c-0.3-0.1-0.5-0.2-0.8-0.3c-0.1-0.2-0.2-0.5-0.4-0.3C8.2,50.9,8.4,51.1,8.6,51.3z M2.2,30.8
		C2,31,2,31.2,2.2,31.3c0,0,0.2,0,0.2-0.1C2.6,31,2.4,30.9,2.2,30.8c-0.2,0-0.3-0.1-0.5-0.2C1.9,30.9,1.9,31.1,2.2,30.8z M1.6,36.5
		c0.1-0.2,0.1-0.4-0.1-0.4c-0.1,0-0.2,0.1-0.3,0.2C1.4,36.4,1.5,36.4,1.6,36.5c0.1,0.1,0.2,0.2,0.3,0.3c0-0.1,0.1-0.2,0.1-0.3
		C1.9,36.4,1.7,36.4,1.6,36.5z M15.2,45.8c-0.7,1.2,0.3,2.6-1,3.4c-1.3-0.9-0.2-2.3-1-3.3c-1.4-0.2-2.6-0.9-3.9-1.8
		c-1.3,0.4-2.5,0.6-3.7,1.6c2.2,4,5.3,6,10.1,5.5c3.5-0.4,5.3-2.4,7.1-5.1c-1.5-0.7-2.7-1.3-4-1.9C17.4,44.7,16.2,45.2,15.2,45.8z
		 M3.6,41c1.2,0,2.2,0,3.1,0c2.2-0.1,4.2-1.5,6.4-1.5c0.3-0.9,0.4-1.7-0.1-2.6C9.7,36.8,6.4,36.7,3,37C3.1,38.5,3,39.6,3.6,41z
		 M18,19.3c-0.7-3.4-1.9-4.4-4.2-4.3c-2.1,0.1-3,1.2-3.4,4C12.9,19.3,15.3,18.3,18,19.3z M21.8,49c0.3,0.6,0.6,1,1.3,0.1
		C22.5,49,22.2,48.6,21.8,49z M2.5,41.2C2.1,41,1.8,41,1.8,41.5c0,0.1,0.1,0.2,0.1,0.2C2.3,41.9,2.4,41.6,2.5,41.2z M10.2,21.4
		c0.3-0.6,0.7-1,0.1-1.5C9.8,20.3,9.8,20.7,10.2,21.4z M26.1,29.5c-0.7-0.4-0.9-0.1-0.7,0.6C25.8,30.1,26,29.9,26.1,29.5z
		 M19.2,21.5c0.3-0.4,0.4-0.7-0.1-1C18.8,20.9,18.9,21.2,19.2,21.5z M14.7,52.4c-0.4-0.3-0.8-0.7-1.2,0.1
		C14,52.9,14.4,52.8,14.7,52.4z M23.1,47.4c0,0.7,0.2,0.9,0.7,0.6C23.6,47.7,23.4,47.5,23.1,47.4z M24.7,44.5
		c-0.2,0.7,0,0.9,0.6,0.7C25.4,44.8,25.1,44.6,24.7,44.5z M2,38.4c-0.1-0.1-0.1-0.3-0.2-0.4c-0.1,0.1-0.3,0.1-0.3,0.2
		c-0.1,0.2,0,0.3,0.2,0.4C1.8,38.5,1.9,38.4,2,38.4z M26.2,34.6c0.3,0.3,0.5,0.1,0.7-0.2C26.6,34.1,26.4,34.3,26.2,34.6z M8.5,22
		c0.2-0.3,0.5-0.6-0.1-0.9C8.2,21.4,8.2,21.7,8.5,22z M20.3,22.1c-0.3,0.1-0.3,0.4,0,0.9C20.4,22.5,20.9,22.4,20.3,22.1z M11.7,20.6
		c0.1-0.1,0.3-0.1,0.3-0.2c0-0.2,0-0.5-0.3-0.3C11.5,20.1,11.4,20.4,11.7,20.6z M15.2,44.5c0-0.1,0.1-0.1,0.1-0.2c0,0-0.1,0-0.2-0.1
		c0,0.1-0.1,0.1,0,0.2C15.1,44.5,15.2,44.5,15.2,44.5z"/>
	<path class="st0" d="M4.2,28c-0.2-0.4-0.9-0.3-0.9-0.8l0.2-0.2c0.4,0,0.9,0,1.4,0C5,27,5.1,27.2,5.3,27.4c-0.2,0.3-0.4,0.7-0.5,1
		C4.5,28.2,4.3,28.1,4.2,28z"/>
	<path class="st0" d="M3.1,27c-0.9-0.5-0.6-0.8,0.1-1.2l-0.1-0.1c0,0.3,0.1,0.7,0.1,1L3.1,27z"/>
	<path class="st0" d="M19.1,52.3c-0.3,0.4-0.7,0.5-1.3,0.4l-0.1-0.1c0.2-0.6,0.6-0.5,1.2-0.5C18.9,52.1,19,52.2,19.1,52.3z"/>
	<path class="st0" d="M13.3,31.4c-0.7,0-1.7-0.4-2.2,0.5c-0.6,0.4-0.9-0.1-0.9-0.5c0-0.8-0.1-1.9,0.9-2.4c0.7,0.4-0.2,0.9,0.2,1.4
		C12.8,30.5,12.8,30.5,13.3,31.4z"/>
	<path class="st0" d="M12.3,25.8c0.5,0.8,0.7,0.9,1.5,1.4c-0.7,0.5-1.3,1.3-2.1,1.5c-0.1-0.7,0.4-1.5,0-2.3
		C11.4,26.1,11.8,25.8,12.3,25.8z"/>
	<path class="st0" d="M15.6,25.4c-0.9,0-1.9,0-2.8,0C13.8,24.1,14.5,24.1,15.6,25.4z"/>
	<path class="st0" d="M17.2,29.2c-0.4,0-0.7-0.1-0.7-0.5c-0.1-0.8-0.1-1.6,0.2-2.3C17.7,27.1,17.6,28.2,17.2,29.2z"/>
	<path class="st0" d="M21.1,24.2c0.4,0,0.7,0,1.2,0c0.7,0.4-0.1,0.7,0,1.2C21.2,25.7,21,25,21.1,24.2z"/>
	<path class="st0" d="M16.7,26.5c-0.5,0.2-0.6-0.2-0.6-0.6C16.8,25.5,16.8,26,16.7,26.5z"/>
	<path class="st0" d="M11.6,28.6c-0.1,0.3,0.1,0.9-0.6,0.6C11.1,28.8,11.1,28.4,11.6,28.6z"/>
	<path class="st0" d="M12.8,25.3c0.1,0.5-0.2,0.6-0.6,0.6C11.9,25.3,12.3,25.2,12.8,25.3z"/>
	<path class="st0" d="M16.1,25.9c-0.4,0-0.7-0.1-0.6-0.6C16,25.2,16.5,25.2,16.1,25.9z"/>
	<path class="st0" d="M13.2,41.5c0.4,0,0.8,0,1.3,0C14,42.2,13.6,42.2,13.2,41.5z"/>
	<path class="st0" d="M14.4,41.5c0.8-0.7,0.9-0.7,1.3,0C15.2,41.6,14.8,41.7,14.4,41.5z"/>
	<path class="st0" d="M15.2,16.7c0.6,0,0.9,0.3,1,0.7c-0.1,0.5-0.5,0.7-0.9,0.6C14.8,17.6,15,17.1,15.2,16.7z"/>
	<path class="st0" d="M13,16.9c0.4,0.4,0.4,0.8-0.1,1c-0.2,0.1-0.6-0.2-0.6-0.3C12.3,17.1,12.6,17,13,16.9z"/>
</g>
<g>
	<path class="st1" d="M41.1,18.8c0-0.9-0.1-2.1-0.1-3.3l0,0c-0.2,1-0.5,2.1-0.8,3l-0.9,3.1h-1.4l-0.8-3c-0.2-0.9-0.5-2.1-0.7-3.1
		l0,0c0,1-0.1,2.3-0.1,3.3l-0.1,3h-1.7l0.5-8h2.4l0.7,2.6c0.2,0.9,0.5,1.9,0.6,2.8l0,0c0.2-0.9,0.5-2,0.7-2.8l0.8-2.6h2.3l0.4,8
		h-1.8L41.1,18.8z"/>
	<path class="st1" d="M46.2,14.5c0,0.5-0.4,0.9-0.9,0.9s-0.9-0.4-0.9-0.9c0-0.5,0.3-0.9,0.9-0.9C45.8,13.5,46.2,13.9,46.2,14.5z
		 M44.4,21.8V16h1.8v5.8H44.4z"/>
	<path class="st1" d="M47.6,17.8c0-0.7,0-1.4,0-1.9h1.5l0.1,0.8l0,0c0.2-0.3,0.8-0.9,1.8-0.9c1.2,0,2.1,0.7,2.1,2.5v3.5h-1.8v-3.1
		c0-0.7-0.2-1.3-0.9-1.3c-0.5,0-0.8,0.3-0.9,0.6c0,0.1-0.1,0.3-0.1,0.4v3.4h-1.8v-4H47.6z"/>
	<path class="st1" d="M56.3,14.5c0,0.4-0.3,0.8-0.9,0.8c-0.5,0-0.9-0.4-0.9-0.9c0-0.5,0.3-0.9,0.9-0.9C56,13.5,56.3,13.9,56.3,14.5z
		 M54.5,21.8V16h1.8v5.8H54.5z"/>
	<path class="st1" d="M57.7,20.2c0.3,0.2,1,0.4,1.6,0.4s0.7-0.2,0.7-0.5c0-0.3-0.2-0.4-0.8-0.6c-1.2-0.4-1.7-1-1.7-1.7
		c0-1,0.9-1.9,2.3-1.9c0.6,0,1.3,0.1,1.6,0.3L61,17.5c-0.2-0.1-0.7-0.3-1.3-0.3c-0.4,0-0.7,0.2-0.7,0.4c0,0.3,0.2,0.4,0.9,0.6
		c1,0.4,1.6,0.9,1.6,1.8c0,1-0.8,1.9-2.5,1.9c-0.7,0-1.5-0.2-1.9-0.4L57.7,20.2z"/>
	<path class="st1" d="M64.8,14.3V16h1.3v1.4h-1.3v2.1c0,0.7,0.2,1,0.7,1c0.2,0,0.4,0,0.5,0v1.4C65.9,22,65.4,22,64.9,22
		c-0.6,0-1-0.2-1.4-0.5c-0.3-0.3-0.5-0.9-0.5-1.7v-2.4h-0.7V16H63v-1.3L64.8,14.3z"/>
	<path class="st1" d="M68.5,19.5c0.1,0.7,0.8,1,1.6,1c0.6,0,1.2-0.1,1.6-0.2l0.2,1.3c-0.6,0.2-1.3,0.3-2.1,0.3c-2,0-3-1.2-3-2.9
		c0-1.5,0.9-3,2.9-3c1.9,0,2.5,1.5,2.5,2.8c0,0.3,0,0.6-0.1,0.7C72.1,19.5,68.5,19.5,68.5,19.5z M70.6,18.2c0-0.4-0.2-1.2-1-1.2
		c-0.7,0-1,0.7-1.2,1.2H70.6z"/>
	<path class="st1" d="M73.3,17.9c0-0.8,0-1.4,0-1.9h1.6l0.1,1l0,0c0.3-0.8,1-1.2,1.6-1.2c0.2,0,0.2,0,0.4,0v1.7c-0.1,0-0.3,0-0.5,0
		c-0.6,0-1.2,0.3-1.3,0.9c0,0.1,0,0.2,0,0.4v2.9h-1.8v-4H73.3z"/>
	<path class="st1" d="M79.6,14.5c0,0.5-0.4,0.9-0.9,0.9s-0.9-0.4-0.9-0.9c0-0.5,0.3-0.9,0.9-0.9S79.6,13.9,79.6,14.5z M77.8,21.8V16
		h1.8v5.8H77.8z"/>
	<path class="st1" d="M86.7,18.9c0,2.1-1.5,3-3,3c-1.7,0-2.9-1.2-2.9-2.9c0-1.9,1.3-3,3-3C85.6,15.9,86.7,17.1,86.7,18.9z
		 M82.5,18.9c0,0.9,0.4,1.7,1.2,1.7c0.7,0,1.2-0.7,1.2-1.7c0-0.8-0.3-1.7-1.2-1.7C82.8,17.2,82.5,18,82.5,18.9z"/>
	<path class="st1" d="M95.8,13.4V20c0,0.6,0,1.4,0,1.7h-1.6V21l0,0c-0.3,0.6-1,0.9-1.8,0.9C91,21.9,90,20.7,90,19c0-2,1.2-3,2.6-3
		c0.7,0,1.3,0.2,1.5,0.6l0,0v-3.1C94.1,13.4,95.8,13.4,95.8,13.4z M94,18.4c0-0.1,0-0.2,0-0.3c-0.1-0.5-0.5-0.8-1-0.8
		c-0.8,0-1.3,0.7-1.3,1.7s0.5,1.6,1.3,1.6c0.5,0,0.9-0.3,1-0.8c0-0.1,0-0.2,0-0.4V18.4z"/>
	<path class="st1" d="M98.5,19.5c0.1,0.7,0.8,1,1.6,1c0.6,0,1.2-0.1,1.6-0.2l0.2,1.3c-0.6,0.2-1.3,0.3-2.1,0.3c-2,0-3-1.2-3-2.9
		c0-1.5,0.9-3,2.9-3c1.9,0,2.5,1.5,2.5,2.8c0,0.3,0,0.6-0.1,0.7C102.1,19.5,98.5,19.5,98.5,19.5z M100.6,18.2c0-0.4-0.2-1.2-1-1.2
		c-0.7,0-1,0.7-1.2,1.2H100.6z"/>
	<path class="st1" d="M36.3,31.7l-0.5,2h-1.9l2.4-8h2.3l2.4,8h-1.9l-0.6-2C38.5,31.7,36.3,31.7,36.3,31.7z M38.3,30.3l-0.5-1.7
		c-0.1-0.4-0.3-1-0.4-1.6l0,0c-0.1,0.4-0.2,1-0.3,1.6l-0.5,1.7H38.3z"/>
	<path class="st1" d="M47.4,27.9c0,0.3,0,0.8,0,1.7v3.3c0,1.2-0.2,2-0.8,2.6c-0.6,0.5-1.5,0.7-2.3,0.7c-0.7,0-1.6-0.1-2.1-0.4
		l0.3-1.4c0.3,0.2,1,0.4,1.7,0.4c0.8,0,1.5-0.4,1.5-1.5v-0.4l0,0c-0.3,0.5-0.9,0.7-1.6,0.7c-1.5,0-2.4-1.2-2.4-2.8
		c0-1.9,1.2-3,2.6-3c0.8,0,1.3,0.3,1.6,0.8l0,0l0.1-0.7C45.9,27.9,47.4,27.9,47.4,27.9z M45.5,30.3c0-0.1,0-0.2,0-0.3
		c-0.1-0.4-0.4-0.8-0.9-0.8c-0.6,0-1.2,0.6-1.2,1.7c0,0.8,0.4,1.6,1.2,1.6c0.4,0,0.8-0.3,0.9-0.7c0-0.1,0.1-0.3,0.1-0.4L45.5,30.3
		L45.5,30.3z"/>
	<path class="st1" d="M48.8,29.8c0-0.8,0-1.4,0-1.9h1.6l0.1,1l0,0c0.3-0.8,1-1.2,1.6-1.2c0.2,0,0.2,0,0.4,0v1.7c-0.1,0-0.3,0-0.5,0
		c-0.6,0-1.2,0.3-1.3,0.9c0,0.1,0,0.2,0,0.4v2.9h-1.8L48.8,29.8L48.8,29.8z"/>
	<path class="st1" d="M55.2,26.3c0,0.5-0.4,0.9-0.9,0.9s-0.9-0.4-0.9-0.9s0.3-0.9,0.9-0.9C54.7,25.4,55.1,25.8,55.2,26.3z
		 M53.3,33.6v-5.8h1.8v5.8H53.3z"/>
	<path class="st1" d="M60.8,33.5c-0.3,0.1-0.9,0.2-1.6,0.2c-1.9,0-3-1.2-3-2.9c0-1.7,1.2-3,3.3-3c0.4,0,0.9,0.1,1.4,0.2l-0.3,1.4
		c-0.2-0.1-0.5-0.2-1-0.2c-0.9,0-1.6,0.6-1.6,1.6c0,1,0.7,1.6,1.6,1.6c0.4,0,0.7-0.1,1-0.2L60.8,33.5z"/>
	<path class="st1" d="M67.2,31.9c0,0.7,0,1.4,0,1.9h-1.6l-0.1-0.8l0,0c-0.2,0.3-0.7,0.9-1.8,0.9c-1.2,0-2-0.7-2-2.5v-3.5h1.8V31
		c0,0.8,0.3,1.4,0.9,1.4c0.5,0,0.7-0.3,0.9-0.6c0-0.1,0.1-0.2,0.1-0.4v-3.5h1.8L67.2,31.9L67.2,31.9z"/>
	<path class="st1" d="M68.6,25.4h1.8v8.4h-1.8V25.4z"/>
	<path class="st1" d="M73.8,26.3v1.6h1.3v1.4h-1.3v2.1c0,0.7,0.2,1,0.7,1c0.2,0,0.4,0,0.5,0v1.4c-0.2,0.1-0.6,0.1-1.2,0.1
		c-0.6,0-1-0.2-1.4-0.5c-0.3-0.3-0.5-0.9-0.5-1.7v-2.3h-0.7v-1.5h0.7v-1.3L73.8,26.3z"/>
	<path class="st1" d="M81.7,31.9c0,0.7,0,1.4,0,1.9h-1.6L80,32.9l0,0c-0.2,0.3-0.7,0.9-1.8,0.9c-1.2,0-2-0.7-2-2.5v-3.5H78V31
		c0,0.8,0.3,1.4,0.9,1.4c0.5,0,0.7-0.3,0.9-0.6c0-0.1,0.1-0.2,0.1-0.4v-3.5h1.8L81.7,31.9L81.7,31.9z"/>
	<path class="st1" d="M83.1,29.8c0-0.8,0-1.4,0-1.9h1.6l0.1,1l0,0c0.3-0.8,1-1.2,1.6-1.2c0.2,0,0.2,0,0.4,0v1.7c-0.1,0-0.3,0-0.5,0
		c-0.6,0-1.2,0.3-1.3,0.9c0,0.1,0,0.2,0,0.4v2.9h-1.8v-4H83.1z"/>
	<path class="st1" d="M90.6,33.6l-0.1-0.5l0,0c-0.4,0.4-0.9,0.7-1.7,0.7c-1.2,0-1.9-0.8-1.9-1.8c0-1.5,1.4-2.2,3.4-2.2v-0.1
		c0-0.3-0.2-0.7-1-0.7c-0.6,0-1.3,0.2-1.6,0.4l-0.3-1.2c0.4-0.2,1.2-0.5,2.2-0.5c1.9,0,2.5,1.2,2.5,2.5v2c0,0.5,0,1,0.1,1.4
		C92.2,33.6,90.6,33.6,90.6,33.6z M90.5,30.9c-0.9,0-1.7,0.2-1.7,0.9c0,0.4,0.3,0.7,0.7,0.7c0.4,0,0.8-0.3,0.9-0.6
		c0-0.1,0-0.2,0-0.3V30.9z"/>
	<path class="st1" d="M92.9,37.3c0.3-1,0.7-2.3,0.8-3.4l1.8-0.1c-0.3,1.2-0.8,2.4-1.4,3.4L92.9,37.3z"/>
	<path class="st1" d="M105.8,33.3c-0.5,0.2-1.6,0.4-2.6,0.4c-1.5,0-2.5-0.3-3.3-1c-0.7-0.7-1.2-1.7-1.2-2.8c0-2.6,1.9-4.1,4.5-4.1
		c1,0,1.8,0.2,2.2,0.4l-0.4,1.5c-0.4-0.2-0.9-0.3-1.9-0.3c-1.5,0-2.6,0.8-2.6,2.5c0,1.7,1,2.6,2.5,2.6c0.4,0,0.7,0,0.8-0.1v-1.7
		h-1.3v-1.4h2.9v4C105.6,33.3,105.8,33.3,105.8,33.3z"/>
	<path class="st1" d="M110.6,33.6l-0.1-0.6l0,0c-0.4,0.4-0.9,0.7-1.7,0.7c-1.2,0-1.9-0.8-1.9-1.8c0-1.5,1.4-2.2,3.4-2.2v-0.1
		c0-0.3-0.2-0.7-1-0.7c-0.6,0-1.3,0.2-1.6,0.4l-0.3-1.2c0.4-0.2,1.2-0.5,2.2-0.5c1.9,0,2.5,1.2,2.5,2.5v2c0,0.5,0,1,0.1,1.4h-1.6
		C110.6,33.5,110.6,33.6,110.6,33.6z M110.2,30.9c-0.9,0-1.7,0.2-1.7,0.9c0,0.4,0.3,0.7,0.7,0.7c0.4,0,0.8-0.3,0.9-0.6
		c0-0.1,0-0.2,0-0.3V30.9z"/>
	<path class="st1" d="M113.5,29.8c0-0.7,0-1.4,0-1.9h1.6l0.1,0.8l0,0c0.2-0.3,0.8-0.9,1.8-0.9c1.2,0,2.1,0.7,2.1,2.5v3.5h-1.8v-3.1
		c0-0.7-0.2-1.3-0.9-1.3c-0.5,0-0.8,0.3-0.9,0.6c0,0.1-0.1,0.3-0.1,0.4v3.4h-1.8V29.8z"/>
	<path class="st1" d="M123.7,33.6l-0.1-0.5l0,0c-0.4,0.4-0.9,0.7-1.7,0.7c-1.2,0-1.9-0.8-1.9-1.8c0-1.5,1.4-2.2,3.4-2.2v-0.1
		c0-0.3-0.2-0.7-1-0.7c-0.6,0-1.3,0.2-1.6,0.4l-0.3-1.2c0.4-0.2,1.2-0.5,2.2-0.5c1.9,0,2.5,1.2,2.5,2.5v2c0,0.5,0,1,0.1,1.4
		C125.1,33.6,123.7,33.6,123.7,33.6z M123.5,30.9c-0.9,0-1.7,0.2-1.7,0.9c0,0.4,0.3,0.7,0.7,0.7s0.8-0.3,0.9-0.6c0-0.1,0-0.2,0-0.3
		V30.9z"/>
	<path class="st1" d="M132.2,25.4V32c0,0.6,0,1.4,0,1.7h-1.6l-0.1-0.8l0,0c-0.3,0.6-1,0.9-1.8,0.9c-1.4,0-2.4-1.2-2.4-2.9
		c0-2,1.2-3,2.6-3c0.7,0,1.3,0.2,1.5,0.6l0,0v-3.1L132.2,25.4L132.2,25.4z M130.4,30.4c0-0.1,0-0.2,0-0.3c-0.1-0.5-0.5-0.8-1-0.8
		c-0.8,0-1.3,0.7-1.3,1.7c0,0.9,0.5,1.6,1.3,1.6c0.5,0,0.9-0.3,1-0.8c0-0.1,0-0.2,0-0.4V30.4z"/>
	<path class="st1" d="M135,31.3c0.1,0.7,0.8,1,1.6,1c0.6,0,1.2-0.1,1.6-0.2l0.2,1.3c-0.6,0.2-1.3,0.3-2.1,0.3c-2,0-3-1.2-3-2.9
		c0-1.5,0.9-3,2.9-3c1.9,0,2.5,1.5,2.5,2.8c0,0.3,0,0.6-0.1,0.7C138.5,31.3,135,31.3,135,31.3z M137.1,30.2c0-0.4-0.2-1.2-1-1.2
		c-0.7,0-1,0.7-1.2,1.2H137.1z"/>
	<path class="st1" d="M139.8,29.8c0-0.8,0-1.4,0-1.9h1.6l0.1,1l0,0c0.3-0.8,1-1.2,1.6-1.2c0.2,0,0.2,0,0.4,0v1.7c-0.1,0-0.3,0-0.5,0
		c-0.6,0-1.2,0.3-1.3,0.9c0,0.1,0,0.2,0,0.4v2.9h-1.8v-4H139.8z"/>
	<path class="st1" d="M144.3,33.6v-5.8h1.8v5.8H144.3z M147.1,25.4l-1.5,1.8h-1.3l1-1.8H147.1z"/>
	<path class="st1" d="M150.7,33.6l-0.1-0.6l0,0c-0.4,0.4-0.9,0.7-1.7,0.7c-1.2,0-1.9-0.8-1.9-1.8c0-1.5,1.4-2.2,3.4-2.2v-0.1
		c0-0.3-0.2-0.7-1-0.7c-0.6,0-1.3,0.2-1.6,0.4l-0.3-1.2c0.4-0.2,1.2-0.5,2.2-0.5c1.9,0,2.5,1.2,2.5,2.5v2c0,0.5,0,1,0.1,1.4h-1.6
		L150.7,33.6L150.7,33.6z M150.5,30.9c-0.9,0-1.7,0.2-1.7,0.9c0,0.4,0.3,0.7,0.7,0.7s0.8-0.3,0.9-0.6c0-0.1,0-0.2,0-0.3L150.5,30.9
		L150.5,30.9z"/>
	<path class="st1" d="M157.4,27.9l0.8,2.8c0.1,0.3,0.2,0.7,0.3,1l0,0c0.1-0.3,0.2-0.7,0.2-1l0.7-2.8h1.9l-1.4,3.8
		c-0.8,2.3-1.4,3.3-2,3.8s-1.3,0.7-1.8,0.8l-0.4-1.5c0.2,0,0.5-0.1,0.7-0.3c0.3-0.1,0.5-0.4,0.7-0.7c0.1-0.1,0.1-0.2,0.1-0.2
		c0-0.1,0-0.1-0.1-0.3l-2.1-5.2h2.2L157.4,27.9L157.4,27.9z"/>
	<path class="st1" d="M164.7,25.9c0.5-0.1,1.4-0.2,2.4-0.2c1.2,0,1.9,0.2,2.4,0.6c0.5,0.4,0.8,1,0.8,1.9c0,0.8-0.2,1.5-0.7,1.9
		c-0.6,0.6-1.5,0.8-2.6,0.8c-0.2,0-0.4,0-0.6,0v2.8h-1.8L164.7,25.9L164.7,25.9z M166.5,29.5c0.1,0,0.3,0,0.6,0
		c0.9,0,1.6-0.5,1.6-1.3c0-0.7-0.5-1.2-1.4-1.2c-0.3,0-0.6,0-0.7,0.1v2.3H166.5z"/>
	<path class="st1" d="M172.5,31.3c0.1,0.7,0.8,1,1.6,1c0.6,0,1.2-0.1,1.6-0.2l0.2,1.3c-0.6,0.2-1.3,0.3-2.1,0.3c-2,0-3-1.2-3-2.9
		c0-1.5,0.9-3,2.9-3c1.9,0,2.5,1.5,2.5,2.8c0,0.3,0,0.6-0.1,0.7C176.1,31.3,172.5,31.3,172.5,31.3z M174.6,30.2c0-0.4-0.2-1.2-1-1.2
		c-0.7,0-1,0.7-1.2,1.2H174.6z"/>
	<path class="st1" d="M177.4,32.1c0.3,0.2,1,0.4,1.6,0.4s0.7-0.2,0.7-0.5c0-0.3-0.2-0.4-0.8-0.6c-1.2-0.4-1.7-1-1.7-1.7
		c0-1,0.9-1.9,2.3-1.9c0.6,0,1.3,0.1,1.6,0.3l-0.3,1.3c-0.2-0.1-0.7-0.3-1.3-0.3c-0.4,0-0.7,0.2-0.7,0.4c0,0.3,0.2,0.4,0.9,0.6
		c1,0.4,1.6,0.9,1.6,1.8c0,1-0.8,1.9-2.5,1.9c-0.7,0-1.5-0.2-1.9-0.4L177.4,32.1z"/>
	<path class="st1" d="M186.8,33.5c-0.3,0.1-0.9,0.2-1.6,0.2c-1.9,0-3-1.2-3-2.9c0-1.7,1.2-3,3.3-3c0.4,0,0.9,0.1,1.4,0.2l-0.3,1.4
		c-0.2-0.1-0.5-0.2-1-0.2c-0.9,0-1.6,0.6-1.6,1.6c0,1,0.7,1.6,1.6,1.6c0.4,0,0.7-0.1,1-0.2L186.8,33.5z"/>
	<path class="st1" d="M191.1,33.6L191,33l0,0c-0.4,0.4-0.9,0.7-1.7,0.7c-1.2,0-1.9-0.8-1.9-1.8c0-1.5,1.4-2.2,3.4-2.2v-0.1
		c0-0.3-0.2-0.7-1-0.7c-0.6,0-1.3,0.2-1.6,0.4l-0.3-1.2c0.4-0.2,1.2-0.5,2.2-0.5c1.9,0,2.5,1.2,2.5,2.5v2c0,0.5,0,1,0.1,1.4h-1.6
		L191.1,33.6L191.1,33.6z M190.9,30.9c-0.9,0-1.7,0.2-1.7,0.9c0,0.4,0.3,0.7,0.7,0.7s0.8-0.3,0.9-0.6c0-0.1,0-0.2,0-0.3L190.9,30.9
		L190.9,30.9z"/>
	<path class="st0" d="M34.5,38.4c0.7-0.1,1.6-0.2,2.7-0.2c1.5,0,2.5,0.3,3.1,0.9c0.6,0.5,0.9,1.4,0.9,2.3c0,1-0.3,1.8-0.8,2.4
		c-0.7,0.8-2,1.3-3.5,1.3c-0.4,0-0.8,0-1.2-0.1v4.5h-1.5L34.5,38.4L34.5,38.4z M36,43.7c0.3,0.1,0.7,0.1,1.2,0.1
		c1.8,0,2.8-0.8,2.8-2.4c0-1.5-1-2.2-2.6-2.2c-0.6,0-1.2,0-1.4,0.1V43.7z"/>
	<path class="st0" d="M43,43.9c0-0.9,0-1.8-0.1-2.5h1.3V43h0.1c0.3-1,1.3-1.8,2.2-1.8c0.2,0,0.3,0,0.4,0v1.4c-0.1,0-0.3,0-0.5,0
		c-1,0-1.8,0.7-2,1.9c0,0.2-0.1,0.4-0.1,0.6v4.3h-1.5v-5.5C42.8,43.9,43,43.9,43,43.9z"/>
	<path class="st0" d="M49.1,45.7c0,2,1.3,2.8,2.7,2.8c1,0,1.7-0.2,2.2-0.4l0.2,1c-0.6,0.2-1.4,0.5-2.7,0.5c-2.5,0-4-1.6-4-4.1
		c0-2.4,1.5-4.3,3.8-4.3c2.6,0,3.4,2.3,3.4,3.8c0,0.3,0,0.5,0,0.6C54.6,45.7,49.1,45.7,49.1,45.7z M53.4,44.7c0-0.9-0.4-2.4-2-2.4
		c-1.5,0-2.1,1.4-2.2,2.4H53.4z"/>
	<path class="st0" d="M56.4,47.9c0.4,0.3,1.2,0.6,1.9,0.6c1,0,1.6-0.5,1.6-1.2c0-0.7-0.4-1-1.5-1.5c-1.5-0.5-2.1-1.3-2.1-2.3
		c0-1.3,1-2.3,2.7-2.3c0.8,0,1.6,0.2,2,0.5l-0.3,1c-0.3-0.2-0.9-0.4-1.7-0.4c-0.8,0-1.4,0.5-1.4,1c0,0.6,0.5,0.9,1.6,1.4
		c1.4,0.5,2.1,1.3,2.1,2.4c0,1.4-1,2.4-3,2.4c-0.8,0-1.7-0.2-2.3-0.5L56.4,47.9z"/>
	<path class="st0" d="M64.8,39.1c0,0.5-0.3,0.9-0.9,0.9c-0.5,0-0.8-0.4-0.8-0.9c0-0.5,0.4-0.9,0.9-0.9
		C64.5,38.3,64.8,38.6,64.8,39.1z M63.1,49.4v-8.1h1.5v8.1H63.1z"/>
	<path class="st0" d="M74,37.6v9.8c0,0.7,0,1.6,0.1,2.1h-1.3l-0.1-1.4l0,0c-0.4,0.9-1.5,1.6-2.7,1.6c-2,0-3.5-1.7-3.5-4.1
		c0-2.6,1.7-4.3,3.6-4.3c1.3,0,2.1,0.6,2.4,1.3l0,0v-4.8H74C74,37.7,74,37.6,74,37.6z M72.6,44.7c0-0.2,0-0.4-0.1-0.6
		c-0.2-0.9-1-1.7-2.1-1.7c-1.5,0-2.4,1.4-2.4,3.1c0,1.6,0.8,2.9,2.4,2.9c0.9,0,1.9-0.6,2.1-1.8c0-0.2,0.1-0.4,0.1-0.6V44.7z"/>
	<path class="st0" d="M77.3,45.7c0,2,1.3,2.8,2.7,2.8c1,0,1.7-0.2,2.2-0.4l0.2,1c-0.5,0.2-1.4,0.5-2.6,0.5c-2.5,0-4-1.6-4-4.1
		c0-2.4,1.5-4.3,3.8-4.3c2.6,0,3.4,2.3,3.4,3.8c0,0.3,0,0.5,0,0.6C82.9,45.7,77.3,45.7,77.3,45.7z M81.5,44.7c0-0.9-0.4-2.4-2-2.4
		c-1.5,0-2.1,1.4-2.2,2.4H81.5z"/>
	<path class="st0" d="M84.7,43.6c0-0.8,0-1.5-0.1-2.2h1.3l0.1,1.4l0,0c0.4-0.7,1.4-1.5,2.6-1.5c1.2,0,2.8,0.6,2.8,3.5v4.8H90V45
		c0-1.3-0.5-2.4-1.9-2.4c-0.9,0-1.7,0.6-2,1.5C86,44.2,86,44.5,86,44.7v4.8h-1.3C84.7,49.5,84.7,43.6,84.7,43.6z"/>
	<path class="st0" d="M99.5,49.2c-0.4,0.2-1.3,0.4-2.3,0.4c-2.4,0-4-1.7-4-4.1c0-2.5,1.7-4.3,4.3-4.3c0.8,0,1.6,0.2,2,0.4l-0.2,1.2
		c-0.3-0.2-0.9-0.4-1.7-0.4c-1.9,0-2.8,1.4-2.8,3c0,1.9,1.2,3,2.8,3c0.8,0,1.4-0.2,1.8-0.4L99.5,49.2z"/>
	<path class="st0" d="M103,39.1c0,0.5-0.3,0.9-0.9,0.9c-0.5,0-0.8-0.4-0.8-0.9c0-0.5,0.4-0.9,0.9-0.9C102.7,38.3,103,38.6,103,39.1z
		 M101.4,49.4v-8.1h1.5v8.1H101.4z"/>
	<path class="st0" d="M109.7,49.4l-0.1-1l0,0c-0.4,0.6-1.3,1.2-2.4,1.2c-1.6,0-2.4-1.2-2.4-2.3c0-2,1.7-3,4.8-2.9V44
		c0-0.6-0.2-1.9-1.8-1.9c-0.7,0-1.6,0.2-2.1,0.6l-0.3-0.9c0.6-0.4,1.6-0.7,2.6-0.7c2.4,0,3,1.7,3,3.3v3c0,0.7,0,1.4,0.1,1.9h-1.5
		C109.7,49.3,109.7,49.4,109.7,49.4z M109.5,45.3c-1.6,0-3.4,0.2-3.4,1.8c0,0.9,0.6,1.4,1.4,1.4c1,0,1.7-0.6,2-1.4
		c0-0.1,0.1-0.3,0.1-0.4v-1.4H109.5z"/>
	<path class="st0" d="M123.7,37.6v9.8c0,0.7,0,1.6,0.1,2.1h-1.4l-0.1-1.4l0,0c-0.4,0.9-1.5,1.6-2.7,1.6c-2,0-3.5-1.7-3.5-4.1
		c0-2.6,1.7-4.3,3.6-4.3c1.3,0,2.1,0.6,2.4,1.3l0,0v-4.8h1.6V37.6z M122.3,44.7c0-0.2,0-0.4-0.1-0.6c-0.2-0.9-1-1.7-2.1-1.7
		c-1.5,0-2.4,1.4-2.4,3.1c0,1.6,0.8,2.9,2.4,2.9c0.9,0,1.9-0.6,2.1-1.8c0-0.2,0.1-0.4,0.1-0.6V44.7z"/>
	<path class="st0" d="M127,45.7c0,2,1.3,2.8,2.7,2.8c1,0,1.7-0.2,2.2-0.4l0.2,1c-0.5,0.2-1.4,0.5-2.6,0.5c-2.5,0-4-1.6-4-4.1
		c0-2.4,1.5-4.3,3.8-4.3c2.6,0,3.4,2.3,3.4,3.8c0,0.3,0,0.5,0,0.6C132.7,45.7,127,45.7,127,45.7z M131.2,44.7c0-0.9-0.4-2.4-2-2.4
		c-1.5,0-2.1,1.4-2.2,2.4H131.2z"/>
	<path class="st0" d="M138,37.6h1.5v11.7H138V37.6z"/>
	<path class="st0" d="M146.3,49.4l-0.1-1l0,0c-0.4,0.6-1.3,1.2-2.4,1.2c-1.6,0-2.4-1.2-2.4-2.3c0-2,1.7-3,4.8-2.9V44
		c0-0.6-0.2-1.9-1.8-1.9c-0.7,0-1.6,0.2-2.1,0.6l-0.3-0.9c0.6-0.4,1.6-0.7,2.6-0.7c2.4,0,3,1.7,3,3.3v3c0,0.7,0,1.4,0.1,1.9h-1.5
		V49.4z M146.1,45.3c-1.6,0-3.4,0.2-3.4,1.8c0,0.9,0.6,1.4,1.4,1.4c1,0,1.7-0.6,2-1.4c0-0.1,0.1-0.3,0.1-0.4v-1.4H146.1z"/>
	<path class="st0" d="M153.5,49.4V38.3h1.6l3.6,5.7c0.8,1.3,1.5,2.5,2,3.7l0,0c-0.1-1.5-0.2-2.8-0.2-4.6v-4.7h1.4v11.2h-1.5
		l-3.6-5.7c-0.7-1.3-1.6-2.5-2.1-3.8l0,0c0.1,1.4,0.1,2.7,0.1,4.6v4.8L153.5,49.4L153.5,49.4z"/>
	<path class="st0" d="M168.8,49.4l-0.1-1l0,0c-0.4,0.6-1.3,1.2-2.4,1.2c-1.6,0-2.4-1.2-2.4-2.3c0-2,1.7-3,4.8-2.9V44
		c0-0.6-0.2-1.9-1.8-1.9c-0.7,0-1.6,0.2-2.1,0.6l-0.3-0.9c0.6-0.4,1.6-0.7,2.6-0.7c2.4,0,3,1.7,3,3.3v3c0,0.7,0,1.4,0.1,1.9h-1.5
		V49.4z M168.6,45.3c-1.6,0-3.4,0.2-3.4,1.8c0,0.9,0.6,1.4,1.4,1.4c1,0,1.7-0.6,2-1.4c0-0.1,0.1-0.3,0.1-0.4v-1.4H168.6z"/>
	<path class="st0" d="M178.1,49.2c-0.4,0.2-1.3,0.4-2.3,0.4c-2.4,0-4-1.7-4-4.1c0-2.5,1.7-4.3,4.3-4.3c0.8,0,1.6,0.2,2,0.4l-0.3,1.2
		c-0.3-0.2-0.9-0.4-1.7-0.4c-1.9,0-2.8,1.4-2.8,3c0,1.9,1.2,3,2.8,3c0.8,0,1.4-0.2,1.8-0.4L178.1,49.2z"/>
	<path class="st0" d="M181.5,39.1c0,0.5-0.3,0.9-0.9,0.9c-0.5,0-0.8-0.4-0.8-0.9c0-0.5,0.4-0.9,0.9-0.9
		C181,38.3,181.5,38.6,181.5,39.1z M179.8,49.4v-8.1h1.5v8.1H179.8z"/>
	<path class="st0" d="M190.9,45.4c0,2.9-2.1,4.3-4,4.3c-2.2,0-3.9-1.6-3.9-4.1c0-2.7,1.8-4.3,4-4.3
		C189.4,41.2,190.9,42.9,190.9,45.4z M184.6,45.4c0,1.8,1,3,2.4,3c1.4,0,2.4-1.3,2.4-3.1c0-1.4-0.6-3-2.4-3
		C185.3,42.4,184.6,43.9,184.6,45.4z M189.2,37.9l-2,2.4h-1l1.5-2.4H189.2z"/>
	<path class="st0" d="M192.8,43.6c0-0.8,0-1.5-0.1-2.2h1.3l0.1,1.4l0,0c0.4-0.7,1.4-1.5,2.6-1.5c1.2,0,2.8,0.6,2.8,3.5v4.8H198V45
		c0-1.3-0.5-2.4-1.9-2.4c-0.9,0-1.7,0.6-2,1.5c-0.1,0.2-0.1,0.4-0.1,0.6v4.8h-1.3V43.6z"/>
</g>
</svg>
