<?xml version="1.0" encoding="utf-8"?>
<!-- Generator: Adobe Illustrator 24.2.3, SVG Export Plug-In . SVG Version: 6.00 Build 0)  -->
<svg version="1.1" id="Capa_1" xmlns="http://www.w3.org/2000/svg" xmlns:xlink="http://www.w3.org/1999/xlink" x="0px" y="0px"
	 viewBox="0 0 200 67.4" style="enable-background:new 0 0 200 67.4;" xml:space="preserve">
<style type="text/css">
	.st0{fill-rule:evenodd;clip-rule:evenodd;fill:#56BBBC;}
	.st1{fill:#FFFFFF;}
	.st2{fill:#56BBBC;}
</style>
<g>
	<path class="st0" d="M12.8,19.8c-0.5-1.1,0.1-1.4,1.1-1.4c0.3,1,0.4,1.9,1.8,1.4C14.8,18,14.8,18,13.9,18c1.4-1.8,2.9-3.4,4.6-4.8
		c-0.3-0.5-1.1-0.3-1.6-0.5c0.1-0.8,0.8-0.5,1.4-0.8c-0.4-0.4-1.4,0.1-1.4-0.7s0.8-0.3,1.1-0.5c0.1-0.1,0.4-0.4,0.3-0.5
		c-0.4-0.5-1.2-1,0.1-1.2c-0.8-2,1.1-0.5,1.5-1.2c0.7-0.4-1.4-1.1,0.1-1.5c0.1,0.3,0.3,0.8,0.7,0.5c0.4-0.3-0.1-0.5-0.3-0.8
		c0-0.5,0.1-0.7,0.7-0.3c0.1,0.1,1.5,1.4,1.1-0.5c-0.1-0.5,1.4-0.1,1.9-0.8c0.5,0.8,1.2,1,2.2,1c1.4,0-0.3-1.8,1.2-1.5
		c0.4,0.3-0.1,1.6,0.8,1.6c0.8,0,2,1.1,2.3-1c0.1,1.8,1.2,2.5,2.3,3.1c-0.5,1.6,0.3,2.9,1.9,2.7c0,0.1,0.1,0.4,0.1,0.5
		c-1.4,1.1-1.4,1.1,0.1,1.8c-0.4,0.7-1.5-0.1-1.9,0.8c0.7,0.5,2,0.7,1.8,2c-0.4,0.4-0.8,0.8-0.8,1.5c0,0.4-1.1,0.8,0,1.2
		c0.8,0.3,1.1-0.1,1.2-1c0-0.3,0.1-0.5,0.4-0.7c0.1-0.1,0.4-0.3,0.4-0.3c0.8,0.8,1.9,1.5,2.5,2.5c1.6,2.3,3.1,4.6,4.2,7.4
		c1.2,3.1,2,6.4,2.2,9.8c0.1,2.2-0.1,4.4-0.4,6.4c-0.3,3.4-1.6,6.7-3.5,9.7c-0.8,1.2-1.1,3-2.9,3.5c0-0.3,0-0.5,0-0.8l0.1-0.1
		l-0.1,0.1c-0.5,0-1-0.3-1.4-0.5c-0.7-0.3-1,0.4-0.7,0.8c0.4,1,1.5,0.3,2.2,0.5c-0.3,0.8-0.8,1.6-1.6,1.9c-2.5,0.7-4.4,2.3-6.7,3
		c-0.7,0-0.8-0.3-0.4-0.8c1.6-0.7,3.7-0.8,4.2-3.4c-1.6,1.1-3,1.8-4.5,2.3c-0.4-0.1-0.8-0.3-0.8-0.8c3.9-1.2,6.8-3.8,9-7.4
		c-1.1-0.5-2.2-1-3-1.5c-1.5-0.8-2.9-1.1-4.8-0.1c-2.3,1.2-3.7,2.2-3,4.9c0.1,0.5-0.1,1.1-0.8,1.1c-0.8,0-1.1-0.4-1-1
		c0.5-2.9-0.8-3.9-3.4-4.4c-0.5-0.1-1.1-0.3-1.4-0.8c-0.3-0.4-0.8-0.8-1.5-0.7c-1.5,0.4-3,1-4.5,1.5c-0.5,0.1-0.7,0.5-0.3,1
		c2.3,3.5,5,6.3,9.3,7.4c0,0.7-0.5,0.8-1.1,0.8c-1.6-0.4-3-1.6-4.8-2.5c0.8,2.5,2.7,2.9,4.4,3.5c0.1,0.4,1.2,0.3,0.7,1.1
		c-0.5,0-1.1-0.3-1.6-0.4c-2.2-0.7-3.9-2.3-6.1-3c-2.3-0.8-3.4-3.3-4.5-5.3S8,47.7,7.4,45.4c-1-3.3-1-6.5-1-9.8
		c0-4.9,1.8-9.4,4.2-13.6c0.3-0.5,0.5-0.8,1.1-0.7c0.7,0,0.8,0.7,1.4,0.8c0.4,0.1,0.8,0,1.1-0.4C13.3,21.4,14,19.7,12.8,19.8z
		 M41.5,29.3c-0.1,0-0.1-0.1-0.3-0.1c0,0.1,0,0.1,0.1,0.3c0.3,0.8,0.8,0.8,1.5,0.5c0.7-0.4,0.5-1,0.3-1.6
		C42.5,28.8,42.4,29.6,41.5,29.3z M7.9,33.3C7.1,34,7.6,34.4,8,34.8c0.3,0.3,0.7,0.4,1,0.1c0.3-0.3,0.5-0.5,0.5-1c0-0.5-0.4,0-0.8,0
		C8.3,33.8,8.2,33.6,7.9,33.3c0.7-0.1,1.6,0.1,1.8-0.7c0-0.8-1.2-0.7-1.6-1.5C7.9,32.1,7.9,32.6,7.9,33.3z M9.4,43
		c0,0.4-0.1,0.8-0.7,0.5C8.4,43.4,8,43.2,8,43.8c0,0.1,0.1,0.4,0.3,0.7c0.5,0.5,1,0.4,1.4-0.1C10.2,43.8,10.5,43.2,9.4,43
		c-0.1-0.5,0.5-1,0.3-1.6c-0.3,0.1-0.7,0.3-1,0.3c-0.4,0-0.8-0.3-1,0.1c-0.1,0.4,0.3,0.8,0.7,1C8.7,43,9.1,43,9.4,43z M10.9,23.8
		c0.7,0.4,1.6,0.8,2-0.3c0.3-0.7-0.8-0.8-1.1-1C10.9,22.3,11,23.2,10.9,23.8c-0.1,0.1-0.5,0.1-0.5,0.4c-0.3,0.5-0.4,1.2,0.3,1.6
		c0.4,0.3,0.8,0.3,1.1-0.1c0.5-0.8-0.5-0.7-0.7-1.1C11,24.3,11,24,10.9,23.8z M20.8,10.7c0,1-1,1.9-0.1,2.9c-1,0.4-0.8,1.5-1,2.3
		c-0.1,0.5,0.4,0.7,0.8,0.7c0.7,0,0.8-0.3,0.4-0.8c-0.3-0.3,0-0.7,0.3-0.8c0.4-0.3,0.5,0.1,0.7,0.4c1,1,1.4,0.5,1.4-0.5
		c0-0.3,0.5-0.7,0.1-1c-1.5,0.5-1.5,0.5-2.3-0.1c2.6-1,5.3-1,7.9-0.7c1.1,0.1,2.2,0.1,3.3-0.3c-1.5-0.7-0.7-2.3-1.6-3.1
		c0.1-0.1,0.4-0.1,0.1-0.4c0,0-0.1,0.1-0.3,0.1C30.4,9.2,30.1,9,30.1,9c0.7-1.2,0.4-1.4-0.7-0.7C29.3,8.2,29.1,8,29,7.8
		c0.1,0,0.1,0,0.3-0.1V7.5c0,0.1-0.1,0.1-0.1,0.3C28.6,7.3,27.6,7.1,27,7c-1-0.3-2.9-0.3-3,0c-0.7,1.2-2.2,1.1-2.7,2.2
		c0-0.3-0.1-0.3-0.4-0.1C21,9,21,9.2,21.1,9.2c0.4,0.7-0.3,0.7-0.5,1c-0.1,0.1-0.3,0.3,0,0.4C20.6,10.9,20.7,10.8,20.8,10.7z
		 M30.5,45.7c-0.8,0.4-1.4-0.4-1.9-0.7c-0.8-0.4-1.5-0.8-2.5-0.4c-0.7,0.4-1.5,0.3-2-0.3c-0.8-0.7,0.4-1.2,0.1-1.9
		c-1.1-0.3-2,0-2.9,0.4c-2.5,1.2-5,1.4-7.6,1.6c-2.2,0.3-2.5,0.5-1.4,2.6c0.4,0.8,1,0.8,1.6,0.8c1.9,0,3.7-0.5,5.3-1.4
		c1.5-0.8,2.7-0.4,4.1,0c1.5,0.5,2.7,1.6,4.4,1.9c0.1-0.4,0.5-1,0.5-1.4c-0.3-1.8,0.4-1.5,1.2-0.5c1.2,1.2,1.1,0.1,1.4-0.5
		c0.7,0,1.2,0,1.8-0.7c0.3,0.5-0.1,1.2,0.4,1.5c1.6,1.1,3.4,1.8,5.3,1.5c1.1-0.1,1.4-1.5,1.5-2.6c0.1-1-1-0.5-1.5-0.8
		c-3-1.1-6.1-1.1-9-2.5c-2.6-1.2-3-1.1-5,1.8C27,43.2,29.1,43.4,30.5,45.7z M38,23.9c-0.7-0.3-1-1-1.4-1.5
		c-4.8-6.5-12.9-7.8-19.1-2.6c-4.8,3.9-6.7,9.4-7.1,15.5c-0.1,1.2,0.7,1.2,1.6,1.2c3.8,0,7.5,0,11.3,0c1.1,0,1.8-0.3,1.6-1.5
		c-0.1-1.1,0.8-2.6-1.5-2.7c-2.9-0.1-3.7-1.6-2.6-4.4c0.4-0.8,1-1.6,1.4-2.5c0.3-0.4,0.5-0.7,0.4-1.4c-0.7-1.6,0.3-3.1,2-3.5
		c3-0.7,5.3,1,5.9,4.2c0.1,1.1,0.5,2,0.8,3c1.2,3.5,0.1,4.8-2.9,4.4C27.1,32.1,27,32.7,27,34c0.1,1.1-0.3,2.5,1.6,2.3
		c3.5-0.1,7.1,0,10.5,0c2.5,0,2.5-0.1,2.2-2.6C40.9,30.3,39.4,27.2,38,23.9c2.5,0.4,2.6,0.3,1.9-2.2C39.8,23.2,38.3,22.8,38,23.9z
		 M34.2,37.5c-2,0-3.9,0-6,0c-0.7,0-1.4,0-1.2,1c0.1,0.8-0.7,2,0.7,2.6c3.5,1.5,7.4,2.2,11.2,3.1c1.2,0.3,1.9,0.1,2-1.2
		c0.1-1.4,0.4-2.7,0.5-4.1c0.1-1-0.1-1.4-1.2-1.4C38.1,37.5,36.1,37.5,34.2,37.5z M17.7,37.5c-1.2,0-2.3,0-3.5,0
		c-4.1,0-3.9,0-3.5,3.9c0.3,1.6,0.8,2.2,2.6,2c3.3-0.1,6.1-1.5,9.3-1.9c2.3-0.3,2.5-1.1,2.5-2.9c-0.1-1.1-0.5-1.4-1.5-1.4
		C21.7,37.5,19.6,37.5,17.7,37.5z M12.7,54.4c0.8,0.7,1.5,1.4,2.3,2c0.5,0.4,1.4,0.8,1.8,0.3c0.5-0.7,0-1.4-0.7-1.9
		C15.1,53.9,14.2,53.7,12.7,54.4z M33.6,16c-0.1-0.5-0.5-1.2-0.7-1.1c-1,0.7-1.9,0-2.7-0.1c-0.4,0-0.8,0.4-1,0.8
		c-0.1,0.7,0.4,0.7,1,0.7c0.8,0,1.5,0.1,2.3,0.5C33.1,17.2,33.6,16.5,33.6,16z M43.7,43c0-0.1,0.1-0.3,0.1-0.4
		c0.1-0.5,0.5-1.4-0.5-0.8c-0.4,0.1-1.9-1.1-1.2,0.7c0.1,0.4-0.1,0.8-0.3,1.2c-0.1,0.5,0,1,0.5,1.2c0.7,0.1,1.1-0.1,1.4-0.7
		C44.1,43.8,43.9,43.4,43.7,43z M42.9,46.6c-1.4-0.7-2.2-0.3-2.6,1.1c-0.3,0.7-0.3,1.2,0.4,1.5c0.7,0.3,1.5,0,1.5-0.8
		C42.2,47.7,42.9,47.3,42.9,46.6z M9.7,26.7c-1,0.5-0.7,1.6-1,2.5c-0.1,0.5,0.1,1.1,0.8,1.1c1.5-0.1,1-1.5,1.4-2.3
		C11.2,27.6,10.2,27.2,9.7,26.7z M43.3,33.4c-0.1,1-1,0.1-1.1,0.8c-0.1,0.4,0.1,0.5,0.4,0.8c0.3,0.3,0.7,0.3,1.1,0
		c0.5-0.4,0.8-1,0.7-1.6c-0.1-0.7-0.4-1.2-0.5-2.2c-0.4,1-1.5,0.7-1.5,1.5C42.2,33.3,43,33.1,43.3,33.4z M44.4,38.9
		c-0.7-0.1-1.1,0.7-1.8,0.3c-0.4-0.3-0.7-0.1-0.8,0.4c-0.1,0.5,0.1,0.8,0.7,0.8C43.7,40.5,44.3,40,44.4,38.9z M35.8,57
		c0.3,0,1,0,1-0.7c0-0.7-1-0.7-1.4-1s-0.7,0.4-0.7,0.8C34.6,56.7,35,57,35.8,57z M8.9,46c0.1,1.1,0.7,1.5,1.5,1.5
		c0.4,0,0.8-0.5,0.7-1C10.5,45,9.4,46.9,8.9,46z M41.1,23.5c-0.4,1.1-1.1,1.4-1.8,1.6c0.5,0.7,1,1,1.5,0.7
		C41.7,25.4,41.5,24.7,41.1,23.5z M44.3,36.3c-0.8,0-1.1,0.5-1.8,0.5c-0.7,0-0.4,1.2,0.3,1.1C43.9,37.9,44.3,37.4,44.3,36.3z
		 M38.3,19.3c-0.3,0.8-0.5,1.4-1.1,1.8c-0.4,0.3,0.8,1.1,1.2,0.5C39.1,21,39,20.3,38.3,19.3z M7.5,35.9c0.1,0.7,0.1,1,0.1,1.2
		c0.3,0.7,0.7,0.8,1.4,0.7c0.3-0.1,0.7-0.3,0.7-0.5c0-0.8-0.8,0-1.1-0.5C8.3,36.4,8,36.3,7.5,35.9z M41,50.7
		c-0.5-0.3-1.2,0.3-1.8-0.3c-0.1-0.3-0.4,0-0.4,0.4c0,0.5,0.3,1,0.8,1.1C40.5,52.1,40.7,51.5,41,50.7z M9.7,48c0.1,1,0.8,1.2,1.5,1
		c0.8-0.3,0.5-1,0.3-1.8C11,48.1,10.2,47.9,9.7,48z M11.8,52.4v0.1c0.5,0.5,1.1,0.8,1.8,0.3c0.3-0.3,0.4-0.7,0.3-1
		c-0.7-1.2-0.7,0.8-1.4,0.3C12.4,51.9,12,51.9,11.8,52.4z M39.9,52.8c-0.4-0.7-1,0.1-1.4-0.4c-0.1-0.3-0.1-1-0.7-0.4
		c-0.3,0.3-0.3,0.8,0,1.1C38.7,53.9,39.4,53.7,39.9,52.8z M36.8,17.9c-0.1,0.8-0.7,1.4-1.2,1.9c0.7,0.3,1.4,0.5,1.6-0.1
		C37.5,19.1,37.5,18.6,36.8,17.9z M12.8,50.3c0-0.3-0.4-0.5-0.5-0.3c-0.4,0.8-1.5-0.4-1.5,0.5c0,0.7,0.7,0.7,1.4,0.7
		C12.7,51.3,12.8,51,12.8,50.3z M25.9,14.5c0.1-0.3,0.7-0.8-0.1-0.8c-0.5,0-0.8,0.4-0.8,1c0,0.5,0.1,1,0.8,1
		C26.7,15.4,25.6,14.8,25.9,14.5z M18.4,15.6c-0.4,0.1-0.7,0.4-0.7,1c0,0.5,0.3,1,0.8,1.1c0.4,0,0.7-0.3,0.5-0.5
		C18.7,16.7,19.1,16,18.4,15.6z M7.6,38.9c0.1,1,0.4,1.5,1.2,1.4c0.3,0,0.5-0.4,0.4-0.7C9.1,38.7,8.2,39.3,7.6,38.9z M40.9,28
		c0.5,0.5,1.1,0.7,1.6,0.3c0.4-0.4,0.3-1,0-1.5C41.8,27.2,41.4,27.4,40.9,28z"/>
	<path class="st0" d="M22.6,60.8c0.5-0.8-0.5-0.7-0.7-1.1c0.4-0.3,0.4-0.7,0.4-1.1c0.5-0.1,1.1-0.1,1.1-0.8c1.6,0,3.3,0,4.9,0
		c0.3,1,0.5,2,0.8,3c-0.3,0.1-0.5,0.3-0.8,0.4c-1.5,1-1.6,2.2-0.4,3c0.7,0.5,1.5,0.7,2.3,0.7c-0.7,0.7-1.5,0.3-2.3,0.4
		c-0.1-0.1-0.3-0.1-0.4-0.3l0,0c-0.1-0.1-0.3-0.3-0.3-0.3l0,0c-0.1-0.1-0.3-0.3-0.3-0.4l0,0c-0.5-1-1-1.1-1.5,0
		c-0.3,0.3-0.4,0.5-0.7,0.8c-0.1,0.1-0.3,0.3-0.4,0.4c-0.7,0.3-1.4,0.5-2.2,0c0.7-1,2.6-0.7,2.7-2.5c-1.1,1.1-2.3,1.8-3.9,1.6
		c-0.1-0.4,0-0.8,0.4-1c0.4-0.1,0.8-0.1,1.2-0.3c0.7-0.3,1.6-0.4,1.8-1.2C24.2,60.9,23,61.3,22.6,60.8z M25.9,60.4
		c0.5,0,1.2,0.1,1.1-0.7c0-0.5-0.5-0.8-1.1-0.8c-0.5,0-1,0.3-1,0.8C24.9,60.5,25.3,60.5,25.9,60.4z"/>
	<path class="st0" d="M29,60.8c-0.3-1-0.5-2-0.8-3c0.1,0,0.3,0,0.4,0c0,0.5,0.4,0.7,0.8,0.8c0.1,0.4,0.3,0.7,0.3,1.1
		c-0.4,0.5-0.3,0.8,0.4,0.8C29.8,60.8,29.4,60.8,29,60.8z"/>
	<path class="st0" d="M30.1,64.9c-0.3-1.1-1.5-0.7-1.9-1.5c0.1,0,0.1-0.1,0.1-0.1c0.4,0,0.7,0,1,0c0.3,0,0.4,0.1,0.7,0.1
		c0.1,0.3,0.5,0.3,0.8,0.3C31.2,64.3,30.6,64.6,30.1,64.9z"/>
	<path class="st0" d="M28.2,63.4c0-0.1-0.1-0.3-0.1-0.3c0.1,0,0.3,0.1,0.4,0.1C28.3,63.2,28.3,63.4,28.2,63.4z"/>
	<path class="st0" d="M30.5,45.7c0.3,0,0.4,0.1,0.4,0.4c-0.1,0-0.3,0-0.4,0C30.5,46,30.5,45.8,30.5,45.7z"/>
	<path class="st0" d="M25.1,10.8c0.5,1.2-0.5,1.1-1,1.1c-0.7,0-1.4-0.3-1.5-1.1c0-1.1,0.8-0.8,1.5-0.8C24.5,9.9,25.5,9.6,25.1,10.8z
		"/>
	<path class="st0" d="M27.9,12c-0.4-0.1-1.1-0.1-1.1-0.7c0-0.5,0.5-0.7,1.1-0.7s1.2,0.1,1.1,0.8C29,11.9,28.3,11.6,27.9,12z"/>
	<polygon class="st0" points="15.4,55.2 15.3,55.3 15.3,55.2 	"/>
</g>
<path class="st1" d="M53.3,17.8c0-0.5,0.3-1,0.8-1c0.4,0,0.7,0.3,1,0.8l2.2,4.9l0,0l2.2-4.9c0.3-0.5,0.4-0.8,1-0.8
	c0.5,0,0.8,0.4,0.8,1v7.4c0,0.5-0.3,0.8-0.7,0.8c-0.4,0-0.7-0.3-0.7-0.8v-4.9l0,0l-1.6,3.7c-0.3,0.5-0.4,0.7-0.8,0.7
	c-0.4,0-0.5-0.1-0.8-0.7l-1.6-3.7l0,0v4.9c0,0.5-0.3,0.8-0.7,0.8c-0.4,0-0.7-0.3-0.7-0.8C53.3,25,53.3,17.8,53.3,17.8z"/>
<path class="st1" d="M63.7,16.7c0.5,0,0.8,0.4,0.8,0.8c0,0.4-0.4,0.8-0.8,0.8c-0.5,0-0.8-0.4-0.8-0.8C62.9,17.1,63.3,16.7,63.7,16.7
	z M63.1,25v-4.9c0-0.5,0.3-0.8,0.7-0.8c0.4,0,0.7,0.3,0.7,0.8V25c0,0.5-0.3,0.8-0.7,0.8C63.3,25.8,63.1,25.5,63.1,25z"/>
<path class="st1" d="M67.8,19.9c0.3-0.4,1-0.7,1.6-0.7c1.4,0,2.2,1,2.2,2.3V25c0,0.5-0.3,0.8-0.7,0.8c-0.4,0-0.7-0.3-0.7-0.8v-3
	c0-0.8-0.4-1.4-1.2-1.4s-1.2,0.5-1.2,1.4v3c0,0.5-0.3,0.8-0.7,0.8c-0.4,0-0.7-0.3-0.7-0.8v-4.9c0-0.5,0.3-0.8,0.7-0.8
	C67.6,19.4,67.8,19.7,67.8,19.9L67.8,19.9L67.8,19.9z"/>
<path class="st1" d="M74.2,16.7c0.5,0,0.8,0.4,0.8,0.8c0,0.4-0.4,0.8-0.8,0.8c-0.4,0-0.8-0.4-0.8-0.8C73.4,17.1,73.8,16.7,74.2,16.7
	z M73.5,25v-4.9c0-0.5,0.3-0.8,0.7-0.8c0.4,0,0.7,0.3,0.7,0.8V25c0,0.5-0.3,0.8-0.7,0.8C73.8,25.8,73.5,25.5,73.5,25z"/>
<path class="st1" d="M77,25.2c-0.3-0.1-0.4-0.3-0.4-0.5c0-0.4,0.3-0.7,0.7-0.7c0.1,0,0.3,0,0.4,0.1c0.5,0.3,1,0.5,1.6,0.5
	c0.7,0,1.2-0.3,1.2-0.7c0-0.4-0.3-0.5-1.1-0.7h-0.7c-1.2-0.1-1.9-0.8-1.9-1.9c0-1.2,0.8-2,2.5-2c0.7,0,1.4,0.1,1.9,0.4
	c0.3,0.1,0.4,0.3,0.4,0.5c0,0.4-0.3,0.7-0.5,0.7c-0.1,0-0.3,0-0.4-0.1c-0.4-0.1-1-0.3-1.4-0.3c-0.7,0-1,0.3-1,0.7
	c0,0.4,0.3,0.5,1.1,0.7h0.7c1.4,0.1,1.9,0.8,1.9,1.9c0,1.2-1,2-2.6,2C78.3,25.8,77.5,25.5,77,25.2z"/>
<path class="st1" d="M83.2,20.6c-0.4,0-0.5-0.3-0.5-0.5c0-0.3,0.3-0.5,0.5-0.5h0.1c0,0,0.1,0,0.1-0.1v-1.1c0-0.5,0.3-0.8,0.7-0.8
	c0.4,0,0.7,0.3,0.7,0.8v1.1c0,0,0,0.1,0.1,0.1h0.7c0.4,0,0.5,0.3,0.5,0.5c0,0.3-0.3,0.5-0.5,0.5H85c0,0-0.1,0-0.1,0.1v3.1
	c0,0.5,0.1,0.7,0.7,0.7c0.4,0,0.7,0.3,0.7,0.7s-0.3,0.7-0.8,0.7h-0.1c-1.4,0-1.9-0.5-1.9-2v-3.1C83.4,20.8,83.4,20.6,83.2,20.6
	L83.2,20.6L83.2,20.6z"/>
<path class="st1" d="M87.4,24.2c-0.1-0.4-0.3-1-0.3-1.5s0.1-1.1,0.3-1.5c0.4-1.1,1.4-1.8,2.6-1.8c1.2,0,2.2,0.7,2.6,1.8
	c0.1,0.4,0.3,1,0.3,1.5c0,0.3-0.1,0.5-0.5,0.5h-3.5c0,0-0.1,0-0.1,0.1s0,0.3,0.1,0.5c0.3,0.5,0.7,1,1.4,1c0.5,0,1-0.1,1.2-0.4
	c0.1-0.1,0.3-0.3,0.5-0.3c0.4,0,0.5,0.3,0.5,0.5c0,0.3-0.1,0.4-0.3,0.5c-0.5,0.4-1.2,0.8-2.3,0.8C88.8,25.8,87.8,25.2,87.4,24.2z
	 M91.3,21.3c-0.1-0.5-0.7-0.8-1.2-0.8s-1.1,0.3-1.2,0.8c0,0.1-0.1,0.3-0.1,0.5c0,0,0,0.1,0.1,0.1h2.5c0,0,0.1,0,0.1-0.1
	C91.4,21.6,91.3,21.4,91.3,21.3z"/>
<path class="st1" d="M95.9,20.2L95.9,20.2c0.3-0.5,0.8-0.8,1.6-0.8c0.4,0,0.5,0.1,0.8,0.1c0.3,0.1,0.4,0.4,0.4,0.5
	c0,0.4-0.3,0.7-0.7,0.7c-0.1,0-0.3,0-0.3,0c-0.1,0-0.4-0.1-0.5-0.1c-0.8,0-1.1,0.7-1.1,1.6V25c0,0.5-0.3,0.8-0.7,0.8
	s-0.7-0.3-0.7-0.8v-4.9c0-0.5,0.3-0.8,0.7-0.8C95.5,19.4,95.9,19.7,95.9,20.2L95.9,20.2z"/>
<path class="st1" d="M100.5,16.7c0.5,0,0.8,0.4,0.8,0.8c0,0.4-0.4,0.8-0.8,0.8s-0.8-0.4-0.8-0.8C99.7,17.1,100.1,16.7,100.5,16.7z
	 M99.8,25v-4.9c0-0.5,0.3-0.8,0.7-0.8s0.7,0.3,0.7,0.8V25c0,0.5-0.3,0.8-0.7,0.8S99.8,25.5,99.8,25z"/>
<path class="st1" d="M103.1,24.2c-0.1-0.4-0.3-0.8-0.3-1.5s0-1.1,0.3-1.5c0.4-1.1,1.4-1.8,2.6-1.8c1.2,0,2.2,0.7,2.6,1.8
	c0.1,0.4,0.3,0.8,0.3,1.5s0,1.1-0.3,1.5c-0.4,1.1-1.4,1.8-2.6,1.8C104.3,25.8,103.4,25.2,103.1,24.2z M106.8,23.8
	c0.1-0.3,0.1-0.7,0.1-1.2c0-0.5,0-0.8-0.1-1.2c-0.1-0.5-0.5-0.8-1.2-0.8c-0.5,0-1,0.3-1.2,0.8c-0.1,0.3-0.1,0.7-0.1,1.2
	c0,0.5,0,0.8,0.1,1.2c0.1,0.5,0.5,0.8,1.2,0.8C106.2,24.6,106.6,24.3,106.8,23.8z"/>
<path class="st1" d="M118.4,17.5V25c0,0.5-0.3,0.8-0.7,0.8s-0.7-0.3-0.7-0.7l0,0c-0.3,0.4-0.8,0.7-1.6,0.7c-1.1,0-1.8-0.5-2.2-1.6
	c-0.1-0.5-0.3-1-0.3-1.6s0-1.2,0.3-1.6c0.3-1,1.1-1.6,2.2-1.6c1,0,1.4,0.3,1.6,0.7l0,0v-2.5c0-0.5,0.3-0.8,0.7-0.8
	S118.4,17.1,118.4,17.5z M114.4,21.4c-0.1,0.3-0.1,0.7-0.1,1.1s0,0.8,0.1,1.1c0.1,0.5,0.5,0.8,1.2,0.8c0.5,0,1-0.3,1.2-0.8
	c0.1-0.3,0.1-0.7,0.1-1.1s0-0.8-0.1-1.1c-0.1-0.5-0.5-0.8-1.2-0.8C115,20.6,114.5,20.8,114.4,21.4z"/>
<path class="st1" d="M120.1,24.2c-0.1-0.4-0.3-1-0.3-1.5s0.1-1.1,0.3-1.5c0.4-1.1,1.4-1.8,2.6-1.8c1.2,0,2.2,0.7,2.6,1.8
	c0.1,0.4,0.3,1,0.3,1.5c0,0.3-0.1,0.5-0.5,0.5h-3.5c0,0-0.1,0-0.1,0.1s0,0.3,0.1,0.5c0.3,0.5,0.7,1,1.4,1c0.5,0,1-0.1,1.2-0.4
	c0.1-0.1,0.3-0.3,0.5-0.3c0.4,0,0.5,0.3,0.5,0.5c0,0.3-0.1,0.4-0.3,0.5c-0.5,0.4-1.2,0.8-2.3,0.8C121.4,25.8,120.4,25.2,120.1,24.2z
	 M123.9,21.3c-0.1-0.5-0.7-0.8-1.2-0.8s-1.1,0.3-1.2,0.8c0,0.1-0.1,0.3-0.1,0.5c0,0,0,0.1,0.1,0.1h2.5c0,0,0.1,0,0.1-0.1
	C123.9,21.6,123.9,21.4,123.9,21.3z"/>
<path class="st1" d="M52.7,42.1l4.6-12.7c0.4-1,0.8-1.5,1.8-1.5c1,0,1.5,0.5,1.8,1.5l4.5,12.7c0,0.1,0.1,0.3,0.1,0.5
	c0,0.8-0.7,1.2-1.4,1.2c-0.5,0-1.1-0.4-1.4-1L62,40.5h-6L55.2,43c-0.3,0.5-0.7,1-1.4,1s-1.4-0.5-1.4-1.2
	C52.6,42.4,52.7,42.3,52.7,42.1z M61.3,38.1l-2.2-6.1H59l-2,6.1H61.3z"/>
<path class="st1" d="M68.1,46.9c-0.3-0.3-0.4-0.5-0.4-0.8c0-0.5,0.4-1.1,1.1-1.1c0.4,0,0.7,0.1,1.1,0.4c0.5,0.4,1.2,0.5,1.9,0.5
	c1.6,0,2.5-0.8,2.5-2.7v-1.1l0,0c-0.5,0.8-1.5,1.4-3,1.4c-1.9,0-3.1-1-3.7-2.7c-0.3-0.8-0.4-1.6-0.4-2.7c0-1.1,0.1-2,0.4-2.9
	c0.5-1.8,1.9-2.7,3.7-2.7c1.6,0,2.5,0.7,3,1.4l0,0v-0.3c0.1-0.5,0.5-1,1.2-1c0.8,0,1.4,0.5,1.4,1.4v9c0,3.5-1.8,5.3-5.2,5.3
	C70.3,48.1,68.8,47.6,68.1,46.9z M74.1,36.1c-0.3-1-1-1.5-1.9-1.5c-1.1,0-1.6,0.5-1.9,1.5c-0.1,0.4-0.3,1.1-0.3,1.8
	c0,0.7,0.1,1.4,0.3,1.8c0.3,1,1,1.5,1.9,1.5c1.1,0,1.6-0.5,1.9-1.5c0.1-0.4,0.3-1.1,0.3-1.8C74.4,37.1,74.2,36.6,74.1,36.1z"/>
<path class="st1" d="M82.9,33.8L82.9,33.8c0.5-0.8,1.5-1.5,2.9-1.5c0.7,0,1.1,0.1,1.4,0.3c0.5,0.3,0.7,0.7,0.7,1.1
	c0,0.8-0.5,1.4-1.2,1.4c-0.1,0-0.4,0-0.5-0.1c-0.3-0.1-0.7-0.1-1.1-0.1c-1.5,0-2,1.1-2,2.9v4.9c0,0.8-0.5,1.4-1.4,1.4
	c-0.7,0-1.4-0.5-1.4-1.4v-8.7c0-0.8,0.5-1.4,1.4-1.4C82.4,32.5,82.9,33,82.9,33.8L82.9,33.8z"/>
<path class="st1" d="M89.3,40.9c-0.3-0.8-0.4-1.5-0.4-2.7c0-1.2,0.1-1.9,0.4-2.7c0.7-1.9,2.3-3.1,4.6-3.1c2.2,0,3.9,1.1,4.6,3.1
	c0.3,0.8,0.4,1.5,0.4,2.7c0,1.2-0.1,1.9-0.4,2.7C97.9,42.8,96.3,44,94,44C91.8,44,90,42.8,89.3,40.9z M96,40.2
	c0.1-0.5,0.3-1.1,0.3-2c0-1,0-1.5-0.3-2c-0.3-1-1.1-1.5-2-1.5c-1.1,0-1.8,0.5-2,1.5c-0.3,0.5-0.3,1.1-0.3,2s0,1.5,0.3,2
	c0.3,1,1.1,1.5,2,1.5C95.1,41.7,95.7,41.2,96,40.2z"/>
<path class="st1" d="M103,27.8c0.8,0,1.5,0.7,1.5,1.5s-0.7,1.5-1.5,1.5c-0.8,0-1.5-0.7-1.5-1.5C101.5,28.5,102.1,27.8,103,27.8z
	 M101.7,42.5v-8.7c0-0.8,0.5-1.4,1.4-1.4c0.8,0,1.4,0.5,1.4,1.4v8.7c0,0.8-0.5,1.4-1.4,1.4C102.3,43.9,101.7,43.4,101.7,42.5z"/>
<path class="st1" d="M110.3,33.6c0.5-0.8,1.6-1.4,3-1.4c2.5,0,3.8,1.8,3.8,4.1v6c0,0.8-0.5,1.4-1.4,1.4c-0.8,0-1.4-0.5-1.4-1.4v-5.4
	c0-1.5-0.7-2.5-2-2.5c-1.4,0-2.2,1-2.2,2.5v5.4c0,0.8-0.5,1.4-1.4,1.4c-0.8,0-1.4-0.5-1.4-1.4v-8.7c0-0.8,0.5-1.4,1.4-1.4
	C109.8,32.5,110.2,33,110.3,33.6L110.3,33.6L110.3,33.6z"/>
<path class="st1" d="M129.7,29.2v13.2c0,0.8-0.5,1.4-1.4,1.4c-0.8,0-1.2-0.4-1.4-1.2l0,0c-0.5,0.8-1.5,1.4-3,1.4
	c-1.9,0-3.3-1.1-3.8-2.9c-0.3-0.8-0.4-1.8-0.4-3c0-1.2,0.1-2.2,0.4-3c0.5-1.8,1.9-2.9,3.8-2.9c1.6,0,2.6,0.5,3,1.4l0,0v-4.4
	c0-0.8,0.5-1.4,1.4-1.4C129.1,27.8,129.7,28.4,129.7,29.2z M122.6,36.1c-0.1,0.5-0.3,1.1-0.3,2c0,1,0.1,1.5,0.3,2
	c0.4,1.1,1.1,1.5,2,1.5c1,0,1.8-0.4,2-1.5c0.1-0.5,0.3-1.1,0.3-2c0-1-0.1-1.5-0.3-2c-0.4-1.1-1.1-1.5-2-1.5
	C123.7,34.6,123,35.1,122.6,36.1z"/>
<path class="st1" d="M139.6,42.7L139.6,42.7c-0.5,0.8-1.6,1.4-3,1.4c-2.5,0-3.8-1.8-3.8-4.1v-6c0-0.8,0.5-1.4,1.4-1.4
	s1.4,0.5,1.4,1.4v5.4c0,1.5,0.7,2.5,2,2.5s2-1,2-2.5V34c0-0.8,0.5-1.4,1.4-1.4s1.4,0.5,1.4,1.4v8.7c0,0.8-0.5,1.4-1.4,1.4
	C140.1,43.9,139.7,43.4,139.6,42.7z"/>
<path class="st1" d="M145.6,42.8c-0.4-0.3-0.7-0.5-0.7-1.1c0-0.7,0.5-1.2,1.2-1.2c0.3,0,0.5,0.1,0.8,0.3c0.8,0.5,1.6,1,2.9,1
	s2-0.5,2-1.4c0-0.7-0.4-1.1-1.9-1.2l-1.2-0.1c-2.3-0.3-3.4-1.4-3.4-3.3c0-2.2,1.5-3.5,4.4-3.5c1.2,0,2.5,0.4,3.4,0.8
	c0.5,0.3,0.8,0.5,0.8,1.1c0,0.7-0.4,1.1-1.1,1.1c-0.3,0-0.4-0.1-0.8-0.3c-0.7-0.4-1.6-0.5-2.5-0.5c-1.1,0-1.6,0.5-1.6,1.1
	c0,0.5,0.4,1.1,1.8,1.2l1.2,0.1c2.3,0.3,3.4,1.5,3.4,3.3c0,2.2-1.6,3.8-4.6,3.8C147.9,44,146.6,43.5,145.6,42.8z"/>
<path class="st1" d="M156.8,34.6c-0.7,0-1.1-0.4-1.1-1s0.4-1,1.1-1h0.3c0.1,0,0.1,0,0.1-0.1v-2c0-0.8,0.5-1.4,1.4-1.4
	c0.7,0,1.2,0.5,1.2,1.4v2c0,0.1,0,0.1,0.1,0.1h1.2c0.7,0,1.1,0.4,1.1,1s-0.4,1-1.1,1h-1.2c-0.1,0-0.1,0-0.1,0.1v5.6
	c0,1,0.3,1.2,1.2,1.2c0.8,0.1,1.2,0.5,1.2,1.1c0,0.7-0.4,1.1-1.4,1.1h-0.3c-2.5,0-3.4-1.1-3.4-3.5v-5.6c0-0.1-0.1-0.1-0.1-0.1
	L156.8,34.6L156.8,34.6z"/>
<path class="st1" d="M167.1,33.8L167.1,33.8c0.5-0.8,1.5-1.5,2.9-1.5c0.7,0,1.1,0.1,1.4,0.3c0.5,0.3,0.7,0.7,0.7,1.1
	c0,0.8-0.5,1.4-1.2,1.4c-0.1,0-0.4,0-0.5-0.1c-0.3-0.1-0.7-0.1-1.1-0.1c-1.5,0-2,1.1-2,2.9v4.9c0,0.8-0.5,1.4-1.4,1.4
	c-0.7,0-1.4-0.5-1.4-1.4v-8.7c0-0.8,0.5-1.4,1.4-1.4C166.6,32.5,167.1,33,167.1,33.8L167.1,33.8z"/>
<path class="st1" d="M175.6,27.8c0.8,0,1.5,0.7,1.5,1.5s-0.7,1.5-1.5,1.5s-1.5-0.7-1.5-1.5S174.7,27.8,175.6,27.8z M174.2,42.5v-8.7
	c0-0.8,0.5-1.4,1.4-1.4s1.4,0.5,1.4,1.4v8.7c0,0.8-0.5,1.4-1.4,1.4S174.2,43.4,174.2,42.5z"/>
<path class="st1" d="M189.9,42.7c0,0.7-0.5,1.2-1.4,1.2c-0.4,0-0.8-0.1-1.1-0.5l-0.4-0.5l0,0c-0.7,0.8-1.8,1.2-3.3,1.2
	c-2.6,0-4.1-1.2-4.1-3.4c0-2.5,1.6-3.5,4.5-3.5h2.3c0.1,0,0.1,0,0.1-0.1v-0.3c0-1.4-0.7-2-2.5-2c-0.8,0-1.5,0.3-2,0.4
	c-0.3,0.1-0.4,0.1-0.7,0.1c-0.7,0-1.1-0.4-1.1-1.1c0-0.4,0.1-0.8,0.7-1c0.7-0.4,1.9-0.8,3.4-0.8c3.1,0,4.6,1.6,4.6,4.4v3.5
	c0,0.5,0.1,0.8,0.3,1.1l0.4,0.5C189.7,42.1,189.9,42.4,189.9,42.7z M186.6,40.1v-1c0-0.1,0-0.1-0.1-0.1h-1.9c-1.8,0-2.5,0.5-2.5,1.5
	c0,1,0.7,1.4,1.9,1.4C185.6,41.9,186.6,41.3,186.6,40.1z"/>
<path class="st2" d="M53.4,48.7c0-0.3,0.1-0.5,0.5-0.5h2.7c1.8,0,2.9,1.1,2.9,2.6c0,1.6-1.1,2.6-2.9,2.6h-2c0,0-0.1,0-0.1,0.1v3
	c0,0.4-0.3,0.7-0.5,0.7c-0.4,0-0.5-0.3-0.5-0.7V48.7L53.4,48.7z M58.3,50.7c0-1-0.7-1.5-1.8-1.5h-2c0,0-0.1,0-0.1,0.1v3
	c0,0,0,0.1,0.1,0.1h2C57.6,52.4,58.3,51.7,58.3,50.7z"/>
<path class="st2" d="M61,56.4v-5.2c0-0.4,0.3-0.5,0.5-0.5c0.3,0,0.5,0.3,0.5,0.5v0.3l0,0c0.3-0.5,0.8-1,1.6-1c0.4,0,0.7,0.1,1,0.3
	C65,51,65,51.1,65,51.3c0,0.3-0.3,0.5-0.5,0.5c-0.1,0-0.1,0-0.3,0c-0.3-0.1-0.4-0.1-0.7-0.1c-1,0-1.4,0.8-1.4,1.8v3
	c0,0.4-0.3,0.5-0.5,0.5C61.3,57,61,56.8,61,56.4z"/>
<path class="st2" d="M65.9,55.3c-0.1-0.3-0.1-0.8-0.1-1.5c0-0.7,0-1.2,0.1-1.6c0.4-1.1,1.2-1.6,2.5-1.6c1.2,0,2,0.5,2.5,1.6
	c0.1,0.4,0.3,1,0.3,1.5c0,0.3-0.1,0.4-0.4,0.4H67c0,0-0.1,0-0.1,0.1c0,0.3,0,0.5,0.1,0.8c0.3,0.7,0.8,1.1,1.6,1.1
	c0.5,0,1.1-0.1,1.5-0.5c0.1-0.1,0.3-0.1,0.4-0.1c0.3,0,0.4,0.1,0.4,0.4c0,0.1,0,0.3-0.1,0.4c-0.7,0.4-1.4,0.8-2.3,0.8
	C67.1,57.1,66.3,56.4,65.9,55.3z M69.9,53.3L69.9,53.3c0.1-0.4,0-0.5,0-0.8c-0.3-0.7-0.7-1-1.5-1c-0.8,0-1.2,0.4-1.5,1
	c0,0.1-0.1,0.4-0.1,0.7c0,0,0,0.1,0.1,0.1H69.9z"/>
<path class="st2" d="M72.6,56.4c-0.1-0.1-0.3-0.3-0.3-0.4c0-0.3,0.3-0.5,0.5-0.5c0.1,0,0.3,0,0.4,0.1c0.5,0.3,1.1,0.5,1.8,0.5
	c1,0,1.4-0.4,1.4-1s-0.3-0.8-1.2-1h-0.7c-1.2-0.1-1.9-0.8-1.9-1.8c0-1.2,0.8-1.9,2.3-1.9c0.7,0,1.4,0.1,1.9,0.4
	c0.3,0.1,0.3,0.3,0.3,0.4c0,0.3-0.3,0.4-0.4,0.4s-0.3,0-0.4-0.1c-0.4-0.1-1-0.3-1.4-0.3c-0.8,0-1.2,0.4-1.2,0.8
	c0,0.5,0.3,0.8,1.2,0.8h0.7c1.4,0.1,1.9,0.8,1.9,1.8c0,1.2-1,2-2.6,2C74,57.1,73.1,56.7,72.6,56.4z"/>
<path class="st2" d="M79,48.8c0-0.4,0.3-0.7,0.7-0.7c0.4,0,0.7,0.3,0.7,0.7s-0.3,0.7-0.7,0.7C79.3,49.5,79,49.1,79,48.8z M79.1,51.3
	c0-0.4,0.3-0.5,0.5-0.5c0.3,0,0.5,0.3,0.5,0.5v5.2c0,0.4-0.3,0.5-0.5,0.5c-0.3,0-0.5-0.3-0.5-0.5V51.3z"/>
<path class="st2" d="M86.2,56.4v-0.1l0,0c-0.3,0.5-0.8,0.8-1.8,0.8c-1.1,0-1.8-0.5-2.2-1.5c-0.1-0.5-0.3-1-0.3-1.8
	c0-0.7,0-1.2,0.3-1.6c0.3-1,1.1-1.5,2.2-1.5c1,0,1.5,0.4,1.8,0.8l0,0v-2.7c0-0.4,0.3-0.5,0.5-0.5c0.3,0,0.5,0.3,0.5,0.5v7.8
	c0,0.4-0.3,0.5-0.5,0.5S86.2,56.8,86.2,56.4z M86.1,55.1c0.1-0.3,0.1-0.7,0.1-1.2s0-1-0.1-1.2c-0.3-0.7-0.7-1-1.4-1s-1.2,0.4-1.4,1
	c-0.1,0.3-0.1,0.7-0.1,1.2s0,1,0.1,1.2c0.3,0.7,0.7,1,1.4,1S85.8,55.8,86.1,55.1z"/>
<path class="st2" d="M89.2,55.3c-0.1-0.4-0.3-0.8-0.3-1.6c0-0.7,0-1.2,0.1-1.6c0.4-1.1,1.2-1.6,2.5-1.6c1.2,0,2,0.5,2.5,1.6
	c0.1,0.4,0.3,1,0.3,1.5c0,0.3-0.1,0.4-0.4,0.4h-3.7c0,0-0.1,0-0.1,0.1c0,0.3,0,0.5,0.1,0.8c0.3,0.7,0.8,1.1,1.6,1.1
	c0.5,0,1.1-0.1,1.5-0.5c0.1-0.1,0.3-0.1,0.4-0.1c0.3,0,0.4,0.1,0.4,0.4c0,0.1,0,0.3-0.1,0.4c-0.5,0.5-1.2,1-2.3,1
	C90.4,57.1,89.6,56.4,89.2,55.3z M93.2,53.3L93.2,53.3c0.1-0.4,0-0.5,0-0.8c-0.3-0.7-0.7-1-1.5-1c-0.8,0-1.2,0.4-1.5,1
	c0,0.1-0.1,0.4-0.1,0.7c0,0,0,0.1,0.1,0.1H93.2z"/>
<path class="st2" d="M96,51.3c0-0.4,0.3-0.5,0.5-0.5s0.5,0.3,0.5,0.5v0.1l0,0c0.3-0.5,1-0.8,1.8-0.8c1.4,0,2.2,1,2.2,2.3v3.5
	c0,0.4-0.3,0.5-0.5,0.5c-0.3,0-0.5-0.3-0.5-0.5v-3.3c0-1-0.4-1.6-1.4-1.6c-0.8,0-1.5,0.5-1.5,1.5v3.3c0,0.4-0.3,0.5-0.5,0.5
	c-0.3,0-0.5-0.3-0.5-0.5V51.3L96,51.3z"/>
<path class="st2" d="M103,55.3c-0.1-0.4-0.1-1-0.1-1.6s0.1-1.2,0.1-1.6c0.4-1.1,1.2-1.6,2.5-1.6c1,0,1.6,0.4,2,1
	c0.1,0.1,0.1,0.3,0.1,0.4c0,0.3-0.3,0.5-0.5,0.5c-0.1,0-0.3-0.1-0.5-0.3c-0.3-0.3-0.7-0.5-1.2-0.5c-0.7,0-1.2,0.3-1.4,1
	c0,0.4,0,0.8,0,1.4c0,0.5,0,1,0.1,1.2c0.3,0.7,0.7,1,1.4,1c0.5,0,1-0.3,1.2-0.5c0.1-0.1,0.3-0.3,0.5-0.3c0.3,0,0.5,0.3,0.5,0.5
	c0,0.1,0,0.3-0.1,0.4c-0.4,0.5-1.1,1-2,1C104.2,57.1,103.2,56.4,103,55.3z"/>
<path class="st2" d="M109.1,48.8c0-0.4,0.3-0.7,0.7-0.7s0.7,0.3,0.7,0.7s-0.3,0.7-0.7,0.7S109.1,49.1,109.1,48.8z M109.2,51.3
	c0-0.4,0.3-0.5,0.5-0.5s0.5,0.3,0.5,0.5v5.2c0,0.4-0.3,0.5-0.5,0.5s-0.5-0.3-0.5-0.5V51.3z"/>
<path class="st2" d="M117.7,56.4c0,0.3-0.3,0.5-0.5,0.5c-0.1,0-0.4-0.1-0.5-0.3l-0.3-0.4l0,0c-0.4,0.4-1,0.7-1.9,0.7
	c-1.4,0-2.2-0.7-2.2-1.9c0-1.2,1-1.9,2.5-1.9h1.4c0,0,0.1,0,0.1-0.1v-0.3c0-0.8-0.4-1.4-1.5-1.4c-0.5,0-1,0.1-1.2,0.3
	c-0.1,0-0.3,0.1-0.3,0.1c-0.3,0-0.4-0.1-0.4-0.4c0-0.1,0.1-0.3,0.3-0.4c0.4-0.3,1.1-0.4,1.9-0.4c1.6,0,2.5,0.8,2.5,2.3v2.2
	c0,0.3,0,0.4,0.1,0.7l0.3,0.4C117.5,56.3,117.7,56.4,117.7,56.4z M116.2,54.9v-0.7c0,0,0-0.1-0.1-0.1h-1.2c-1.1,0-1.5,0.3-1.5,1
	c0,0.7,0.4,1,1.4,1C115.5,56.2,116.2,55.8,116.2,54.9z"/>
<path class="st2" d="M126.3,56.4v-0.1l0,0c-0.3,0.5-0.8,0.8-1.8,0.8c-1.1,0-1.8-0.5-2.2-1.5c-0.1-0.5-0.3-1-0.3-1.8
	c0-0.7,0-1.2,0.3-1.6c0.3-1,1.1-1.5,2.2-1.5c1,0,1.5,0.4,1.8,0.8l0,0v-2.7c0-0.4,0.3-0.5,0.5-0.5s0.5,0.3,0.5,0.5v7.8
	c0,0.4-0.3,0.5-0.5,0.5S126.3,56.8,126.3,56.4z M126.1,55.1c0.1-0.3,0.1-0.7,0.1-1.2s0-1-0.1-1.2c-0.3-0.7-0.7-1-1.4-1
	s-1.2,0.4-1.4,1c-0.1,0.3-0.1,0.7-0.1,1.2s0,1,0.1,1.2c0.3,0.7,0.7,1,1.4,1S125.8,55.8,126.1,55.1z"/>
<path class="st2" d="M129.3,55.3c-0.1-0.4-0.3-0.8-0.3-1.6c0-0.7,0-1.2,0.1-1.6c0.4-1.1,1.2-1.6,2.5-1.6s2,0.5,2.5,1.6
	c0.1,0.4,0.3,1,0.3,1.5c0,0.3-0.1,0.4-0.4,0.4h-3.7c0,0-0.1,0-0.1,0.1c0,0.3,0,0.5,0.1,0.8c0.3,0.7,0.8,1.1,1.6,1.1
	c0.5,0,1.1-0.1,1.5-0.5c0.1-0.1,0.3-0.1,0.4-0.1c0.3,0,0.4,0.1,0.4,0.4c0,0.1,0,0.3-0.1,0.4c-0.5,0.5-1.2,0.8-2.2,0.8
	C130.5,57.1,129.7,56.4,129.3,55.3z M133.2,53.3L133.2,53.3c0.1-0.4,0-0.5,0-0.8c-0.3-0.7-0.7-1-1.5-1s-1.2,0.4-1.5,1
	c0,0.1-0.1,0.4-0.1,0.7c0,0,0,0.1,0.1,0.1H133.2z"/>
<path class="st2" d="M140.7,57c-1.1,0-1.5-0.5-1.5-1.6v-6.7c0-0.4,0.3-0.5,0.5-0.5c0.3,0,0.5,0.3,0.5,0.5v6.7c0,0.5,0.1,0.7,0.5,0.7
	c0.3,0,0.5,0.3,0.5,0.5C141.4,56.8,141.2,57,140.7,57L140.7,57L140.7,57z"/>
<path class="st2" d="M148,56.4c0,0.3-0.3,0.5-0.5,0.5c-0.1,0-0.4-0.1-0.5-0.3l-0.3-0.4l0,0c-0.4,0.4-1,0.7-1.9,0.7
	c-1.4,0-2.2-0.7-2.2-1.9c0-1.2,1-1.9,2.5-1.9h1.4c0,0,0.1,0,0.1-0.1v-0.3c0-0.8-0.4-1.4-1.5-1.4c-0.5,0-1,0.1-1.2,0.3
	c-0.1,0-0.3,0.1-0.3,0.1c-0.3,0-0.4-0.1-0.4-0.4c0-0.1,0.1-0.3,0.3-0.4c0.4-0.3,1.1-0.4,1.9-0.4c1.6,0,2.5,0.8,2.5,2.3v2.2
	c0,0.3,0,0.4,0.1,0.7l0.3,0.4C147.9,56.3,148,56.4,148,56.4z M146.6,54.9v-0.7c0,0,0-0.1-0.1-0.1h-1.2c-1.1,0-1.5,0.3-1.5,1
	c0,0.7,0.4,1,1.4,1C145.9,56.2,146.6,55.8,146.6,54.9z"/>
<path class="st2" d="M152.8,48.7c0-0.4,0.3-0.7,0.7-0.7c0.3,0,0.5,0.3,0.8,0.5l3.8,6.3l0,0v-6.3c0-0.4,0.3-0.5,0.5-0.5
	c0.3,0,0.5,0.3,0.5,0.5v7.8c0,0.4-0.3,0.7-0.7,0.7c-0.3,0-0.5-0.3-0.8-0.5l-3.8-6.3l0,0v6.3c0,0.4-0.3,0.5-0.5,0.5s-0.5-0.3-0.5-0.5
	V48.7L152.8,48.7z"/>
<path class="st2" d="M166.4,56.4c0,0.3-0.3,0.5-0.5,0.5c-0.1,0-0.4-0.1-0.5-0.3l-0.3-0.4l0,0c-0.4,0.4-1,0.7-1.9,0.7
	c-1.4,0-2.2-0.7-2.2-1.9c0-1.2,1-1.9,2.5-1.9h1.4c0,0,0.1,0,0.1-0.1v-0.3c0-0.8-0.4-1.4-1.5-1.4c-0.5,0-1,0.1-1.2,0.3
	c-0.1,0-0.3,0.1-0.3,0.1c-0.3,0-0.4-0.1-0.4-0.4c0-0.1,0.1-0.3,0.3-0.4c0.4-0.3,1.1-0.4,1.9-0.4c1.6,0,2.5,0.8,2.5,2.3v2.2
	c0,0.3,0,0.4,0.1,0.7l0.3,0.4C166.4,56.3,166.4,56.4,166.4,56.4z M164.9,54.9v-0.7c0,0,0-0.1-0.1-0.1h-1.2c-1.1,0-1.5,0.3-1.5,1
	c0,0.7,0.4,1,1.4,1C164.4,56.2,164.9,55.8,164.9,54.9z"/>
<path class="st2" d="M167.9,55.3c-0.1-0.4-0.1-1-0.1-1.6s0.1-1.2,0.1-1.6c0.4-1.1,1.2-1.6,2.5-1.6c1,0,1.6,0.4,2,1
	c0.1,0.1,0.1,0.3,0.1,0.4c0,0.3-0.3,0.5-0.5,0.5c-0.1,0-0.3-0.1-0.5-0.3c-0.3-0.3-0.7-0.5-1.2-0.5c-0.7,0-1.2,0.3-1.4,1
	c-0.1,0.3-0.1,0.7-0.1,1.2s0,1,0.1,1.2c0.3,0.7,0.7,1,1.4,1c0.5,0,1-0.3,1.2-0.5c0.1-0.1,0.3-0.3,0.5-0.3c0.3,0,0.5,0.3,0.5,0.5
	c0,0.1,0,0.3-0.1,0.4c-0.4,0.5-1.1,1-2,1C169.2,57.1,168.2,56.4,167.9,55.3z"/>
<path class="st2" d="M174.1,48.8c0-0.4,0.3-0.7,0.7-0.7c0.4,0,0.7,0.3,0.7,0.7s-0.3,0.7-0.7,0.7C174.3,49.5,174.1,49.1,174.1,48.8z
	 M174.2,51.3c0-0.4,0.3-0.5,0.5-0.5s0.5,0.3,0.5,0.5v5.2c0,0.4-0.3,0.5-0.5,0.5s-0.5-0.3-0.5-0.5V51.3z"/>
<path class="st2" d="M177.3,55.3c-0.1-0.4-0.3-0.8-0.3-1.6c0-0.7,0-1.1,0.3-1.6c0.3-1.1,1.2-1.6,2.5-1.6c1.2,0,2.2,0.5,2.5,1.6
	c0.1,0.4,0.3,0.8,0.3,1.6c0,0.7,0,1.2-0.3,1.6c-0.3,1.1-1.2,1.6-2.5,1.6C178.6,57,177.6,56.4,177.3,55.3z M181.1,55.1
	c0.1-0.3,0.1-0.7,0.1-1.2s0-1-0.1-1.2c-0.3-0.7-0.7-1-1.4-1c-0.7,0-1.2,0.4-1.4,1c-0.1,0.3-0.1,0.7-0.1,1.2s0,1,0.1,1.2
	c0.3,0.7,0.7,1,1.4,1C180.5,56,181,55.8,181.1,55.1z M179.4,49.4c0-0.1,0-0.1,0.1-0.3l0.7-1.1c0.1-0.1,0.3-0.3,0.4-0.3
	c0.3,0,0.4,0.1,0.4,0.4c0,0.1,0,0.3-0.1,0.3l-0.8,1.1c-0.1,0.1-0.3,0.3-0.4,0.3C179.5,49.8,179.4,49.6,179.4,49.4z"/>
<path class="st2" d="M184.1,51.3c0-0.4,0.3-0.5,0.5-0.5c0.3,0,0.5,0.3,0.5,0.5v0.1l0,0c0.3-0.5,1-0.8,1.8-0.8c1.4,0,2.2,1,2.2,2.3
	v3.5c0,0.4-0.3,0.5-0.5,0.5s-0.5-0.3-0.5-0.5v-3.3c0-1-0.4-1.6-1.4-1.6c-0.8,0-1.5,0.5-1.5,1.5v3.3c0,0.4-0.3,0.5-0.5,0.5
	s-0.5-0.3-0.5-0.5L184.1,51.3L184.1,51.3z"/>
</svg>
