<?xml version="1.0" encoding="utf-8"?>
<!-- Generator: Adobe Illustrator 16.0.0, SVG Export Plug-In . SVG Version: 6.00 Build 0)  -->
<!DOCTYPE svg PUBLIC "-//W3C//DTD SVG 1.0//EN" "http://www.w3.org/TR/2001/REC-SVG-20010904/DTD/svg10.dtd">
<svg version="1.0" id="Capa_1" xmlns="http://www.w3.org/2000/svg" xmlns:xlink="http://www.w3.org/1999/xlink" x="0px" y="0px"
	 width="200px" height="71.752px" viewBox="0 0 200 71.752" enable-background="new 0 0 200 71.752" xml:space="preserve">
<g>
	<path fill="#FFFFFF" d="M195.941,51.195c-3.482-9.241-7.089-18.436-10.62-27.659c-1.39-3.632-1.356-3.57-5.289-3.658
		c-1.457-0.032-2.067,0.484-2.577,1.801c-3.714,9.582-7.533,19.124-11.267,28.698c-0.568,1.455-1.088,2.546-2.999,2.543
		c-1.914-0.003-1.145,1.695-1.284,2.757c-0.148,1.127,0.545,1.323,1.472,1.317c3.206-0.019,6.412-0.013,9.618-0.005
		c0.822,0.001,1.543-0.155,1.384-1.191c-0.153-0.998,0.721-2.718-0.966-2.786c-2.933-0.119-1.866-1.609-1.356-3.036
		c0.202-0.565,0.485-1.113,0.609-1.694c0.274-1.286,1.03-1.63,2.295-1.589c2.802,0.09,5.61,0.028,8.415,0.028
		c4.408,0,4.408,0,5.812,4.195c0.042,0.126,0.078,0.257,0.134,0.377c0.47,0.993,0.226,1.537-0.939,1.496
		c-2.318-0.082-2.01,1.551-1.965,3.007c0.058,1.859,1.504,1.123,2.385,1.166c3.728,0.185,7.469-0.202,11.195,0.219
		c0-1.47,0-2.94,0-4.41C198.439,52.793,196.782,53.425,195.941,51.195z M184.707,42.354c-2.864-0.043-5.729-0.031-8.593-0.004
		c-0.853,0.008-1.282-0.174-0.926-1.133c1.733-4.671,3.448-9.349,5.346-14.504c1.785,5.055,3.411,9.695,5.069,14.323
		C185.936,41.965,185.795,42.37,184.707,42.354z"/>
	<path fill="#FFFFFF" d="M162.702,21.11c0.228-1.178-0.612-1.234-1.492-1.229c-3.407,0.019-6.819,0.12-10.219-0.038
		c-1.898-0.088-2.367,0.565-2.321,2.36c0.038,1.505,0.776,1.89,1.958,1.837c2.158-0.097,2.559,0.977,2.494,2.921
		c-0.145,4.337-0.045,8.682-0.045,13.024c0,2.24,0,4.479,0,6.719c-0.138,0.02-0.276,0.039-0.415,0.058
		c-4.88-6.846-9.741-13.705-14.65-20.53c-1.514-2.106-2.526-5.075-4.738-6.041c-2.197-0.959-5.125-0.135-7.711-0.348
		c-2.042-0.168-2.42,0.629-2.398,2.479c0.025,2.129,1.597,1.749,2.651,1.806c1.525,0.083,1.85,0.688,1.839,2.087
		c-0.058,7.548-0.013,15.097-0.041,22.645c-0.004,1.183,0.446,2.545-0.307,3.508c-0.624,0.798-1.893,0.306-2.863,0.495
		c-1.895,0.368-1.064,1.837-1.206,2.891c-0.157,1.175,0.652,1.245,1.532,1.242c3.474-0.013,6.951-0.1,10.419,0.036
		c1.793,0.071,2.25-0.52,2.252-2.265c0.001-1.984-1.249-2.003-2.496-1.956c-1.623,0.062-2.017-0.618-2.002-2.137
		c0.065-6.747,0.022-13.494,0.033-20.24c0-0.349-0.216-0.824,0.344-1.009c5.925,8.313,11.917,16.572,17.715,24.963
		c1.381,1.999,2.825,2.821,5.23,2.675c1.681-0.102,2.287-0.414,2.267-2.24c-0.098-9.017-0.044-18.036-0.044-27.054
		c0-3.122-0.012-3.186,3.059-3.793C163.541,23.583,162.507,22.115,162.702,21.11z"/>
	<path fill="#FFFFFF" d="M114.435,38.124c-0.401-0.156-0.964-0.066-1.224-0.733c0.614-0.323,1.247-0.637,1.861-0.983
		c2.38-1.339,3.737-3.34,3.965-6.093c0.463-5.592-2.402-9.158-8.239-10.019c-5.904-0.871-11.861-0.156-17.784-0.45
		c-1.995-0.099-2.515,0.57-2.415,2.468c0.074,1.391,0.731,1.783,1.843,1.731c2.355-0.11,2.701,1.12,2.667,3.185
		c-0.12,7.338-0.046,14.679-0.047,22.02c0,3.016,0.014,3.104-2.955,3.596c-1.85,0.307-1.368,1.578-1.462,2.707
		c-0.116,1.4,0.749,1.452,1.777,1.448c5.071-0.02,10.143,0.018,15.214-0.027c2.276-0.02,4.528-0.347,6.678-1.142
		c4.195-1.553,6.389-4.72,6.392-9.167C120.709,42.532,118.672,39.778,114.435,38.124z M101.32,30.069
		c-0.004-0.534-0.004-1.068-0.004-1.603c0-4.183,0-4.192,4.161-4.02c0.865,0.036,1.73,0.14,2.589,0.256
		c2.988,0.401,4.636,2.144,4.747,4.993c0.118,3.002-1.356,5.009-4.269,5.651c-2.039,0.449-4.125,0.188-6.19,0.239
		c-0.969,0.024-1.045-0.578-1.038-1.309C101.33,32.874,101.32,31.471,101.32,30.069z M109.754,52.037
		c-2.434,0.583-4.912,0.312-7.374,0.367c-0.944,0.022-1.07-0.545-1.063-1.292c0.015-1.667,0.004-3.335,0.004-5.002
		c-0.001-1.601,0-3.201-0.001-4.802c-0.001-0.698-0.001-1.364,1.004-1.338c2.46,0.063,4.936-0.216,7.372,0.368
		c2.979,0.714,4.498,2.716,4.5,5.966C114.2,49.529,112.836,51.297,109.754,52.037z"/>
	<path fill="#56BBBC" d="M35.533,16.081c-2.922,1.38-5.829,2.792-8.741,4.192c0.052,0.127,0.104,0.255,0.157,0.383
		c5.984,0,11.969,0,17.953,0c0.02-0.115,0.039-0.23,0.059-0.345c-2.72-1.33-5.44-2.66-8.161-3.991
		C36.397,16.124,35.958,15.88,35.533,16.081z"/>
	<path fill="#56BBBC" d="M35.876,0C16.094,0,0,16.094,0,35.876c0,19.782,16.094,35.876,35.876,35.876
		c19.782,0,35.876-16.094,35.876-35.876C71.752,16.094,55.658,0,35.876,0z M16.481,53.863c-0.049-1.378,0.222-2.009,1.837-1.98
		c5.825,0.104,11.652,0.041,17.478,0.041c5.89,0,11.78,0.064,17.668-0.042c1.58-0.028,1.782,0.646,1.71,1.892
		c-0.064,1.105,0.277,2.221-1.616,2.209c-11.779-0.074-23.558-0.072-35.337,0C16.461,55.993,16.524,55.102,16.481,53.863z
		 M20.388,44.079c0.028-5.331,0.092-10.663-0.025-15.991c-0.039-1.757,0.723-1.992,2.146-1.913c1.276,0.071,2.482-0.229,2.429,1.852
		c-0.135,5.327,0.028,10.662-0.085,15.99c-0.037,1.739,0.811,1.817,2.086,1.754c1.178-0.059,2.379,0.29,2.335-1.712
		c-0.118-5.328,0.045-10.663-0.081-15.99c-0.047-2.005,1.057-1.855,2.391-1.897c1.403-0.044,2.212,0.129,2.174,1.905
		c-0.114,5.329,0.033,10.662-0.08,15.991c-0.038,1.805,0.931,1.713,2.144,1.707c1.197-0.006,2.198,0.13,2.16-1.692
		c-0.111-5.329,0.033-10.663-0.079-15.991c-0.037-1.754,0.733-1.982,2.158-1.918c1.307,0.058,2.458-0.164,2.41,1.874
		c-0.128,5.327,0.038,10.662-0.083,15.99c-0.045,1.976,1.108,1.696,2.313,1.736c1.254,0.043,2.146,0.021,2.109-1.738
		c-0.112-5.329,0.047-10.663-0.083-15.99c-0.05-2.046,1.113-1.812,2.414-1.87c1.409-0.062,2.199,0.133,2.16,1.905
		c-0.117,5.328-0.051,10.66-0.029,15.991c0.002,0.689-0.286,1.499,0.923,1.719c1.915,0.35,0.744,1.933,0.943,2.938
		c0.232,1.17-0.762,1.074-1.512,1.075c-5.268,0.007-10.535,0.004-15.802,0.004c-5.14,0.001-10.281,0.021-15.42-0.021
		c-0.704-0.005-1.994,0.439-1.845-0.877c0.12-1.065-1.2-2.816,1.095-3.169C20.747,45.57,20.385,44.69,20.388,44.079z M53.771,24.458
		c-5.007-0.087-10.016-0.033-15.024-0.032c-1.015,0-2.029,0-3.043,0c-5.769,0-11.538,0.003-17.307-0.006
		c-0.563,0-1.193,0.06-1.675-0.163c-0.718-0.331-1.063-1.13-1.222-1.843c-0.184-0.825,0.712-0.936,1.228-1.211
		c5.866-3.137,11.764-6.214,17.602-9.402c1.171-0.64,2.035-0.545,3.146,0.059C43.21,14.973,48.993,18,54.735,21.1
		c0.615,0.332,1.864,0.35,1.386,1.598C55.729,23.723,55.162,24.483,53.771,24.458z"/>
</g>
</svg>
