<?xml version="1.0" encoding="utf-8"?>
<!-- Generator: Adobe Illustrator 16.0.0, SVG Export Plug-In . SVG Version: 6.00 Build 0)  -->
<!DOCTYPE svg PUBLIC "-//W3C//DTD SVG 1.0//EN" "http://www.w3.org/TR/2001/REC-SVG-20010904/DTD/svg10.dtd">
<svg version="1.0" id="Capa_1" xmlns="http://www.w3.org/2000/svg" xmlns:xlink="http://www.w3.org/1999/xlink" x="0px" y="0px"
	 width="200px" height="27.378px" viewBox="0 0 200 27.378" enable-background="new 0 0 200 27.378" xml:space="preserve">
<g>
	<path fill-rule="evenodd" clip-rule="evenodd" fill="#FFFFFF" d="M81.491,16.125c-2.517,0-5.034,0.021-7.55-0.013
		c-0.721-0.01-1.071,0.142-1.004,0.956c0.071,0.866,0.008,1.741,0.02,2.612c0.025,1.765,1.138,2.886,2.911,2.893
		c3.646,0.015,7.292-0.001,10.938,0.012c1.294,0.004,2.166,0.613,2.541,1.703c0.288,0.841-0.036,1.833-0.804,2.52
		c-0.463,0.415-1.016,0.532-1.609,0.532c-3.84-0.001-7.68,0.031-11.52-0.016c-3.875-0.047-7.146-3.292-7.2-7.181
		c-0.06-4.387-0.047-8.777-0.005-13.165c0.033-3.441,3.459-7.036,7.02-6.906c2.964,0.108,5.937,0.017,8.905,0.022
		c4.067,0.006,7.436,3.373,7.45,7.446c0.007,2,0.01,4.001,0.002,6.002c-0.007,1.725-0.827,2.563-2.543,2.573
		c-2.517,0.015-5.034,0.004-7.551,0.004C81.491,16.122,81.491,16.124,81.491,16.125z M79.912,11.47c2.033,0,4.066-0.027,6.098,0.015
		c0.697,0.015,0.997-0.143,0.944-0.902c-0.065-0.931-0.011-1.871-0.018-2.806c-0.013-1.8-1.227-3.02-3.047-3.029
		c-2.678-0.013-5.356-0.014-8.035,0.002c-1.793,0.011-3.005,1.264-3.012,3.073c-0.004,0.968,0.032,1.937-0.008,2.903
		c-0.025,0.608,0.209,0.765,0.786,0.757C75.717,11.456,77.814,11.473,79.912,11.47z"/>
	<path fill-rule="evenodd" clip-rule="evenodd" fill="#FFFFFF" d="M162.58,11.312c1.454,0.11,3.27-0.213,5.057,0.185
		c4.049,0.9,6.233,4.582,5.975,8.722c-0.296,4.756-4.208,6.933-8.177,7.095c-2.706,0.111-5.42,0.053-8.13,0.014
		c-4.023-0.059-7.378-3.69-7.174-7.708c0.065-1.283,1.011-2.232,2.289-2.296c1.289-0.065,2.156,0.704,2.324,2.061
		c0.3,2.414,1.151,3.166,3.601,3.169c2.484,0.003,4.969,0.006,7.454,0c2.015-0.005,3.111-1.147,3.115-3.229
		c0.004-2.061-1.098-3.215-3.123-3.228c-2.614-0.016-5.227,0.007-7.841-0.01c-3.35-0.022-5.896-1.579-7.022-4.655
		c-1.786-4.878-0.063-10.337,6.247-11.159c3.145-0.41,6.322-0.283,9.468-0.112c3.783,0.206,6.737,3.711,6.639,7.5
		c-0.035,1.321-0.938,2.358-2.134,2.447c-1.431,0.106-2.25-0.571-2.503-2.071c-0.444-2.631-1.088-3.176-3.773-3.177
		c-2.323-0.001-4.646-0.018-6.97,0.013c-1.887,0.025-2.994,1.278-2.976,3.288c0.017,1.878,1.226,3.133,3.052,3.147
		C159.396,11.32,160.815,11.312,162.58,11.312z"/>
	<path fill-rule="evenodd" clip-rule="evenodd" fill="#FFFFFF" d="M51.203,27.325c-1.48-0.137-3.483,0.25-5.461-0.308
		c-3.349-0.945-5.696-4.381-5.257-7.822c0.137-1.073,1.14-1.872,2.35-1.869c1.134,0.002,2.077,0.896,2.242,2.125
		c0.323,2.4,1.117,3.103,3.517,3.104c2.517,0.001,5.035,0.006,7.552-0.001c1.82-0.005,3.094-1.295,3.094-3.111
		c0-2.06-1.137-3.324-3.06-3.341c-2.614-0.023-5.23-0.071-7.842,0.004c-4.058,0.118-7.867-3.251-7.717-7.662
		c0.084-2.5,0.443-4.746,2.487-6.413c1.618-1.32,3.542-1.843,5.568-1.909c2.547-0.083,5.099-0.067,7.648-0.016
		c4.158,0.083,7.401,3.615,7.191,7.762c-0.063,1.247-1.092,2.239-2.333,2.25c-1.279,0.011-2.186-0.82-2.312-2.118
		c-0.225-2.315-1.093-3.125-3.402-3.134c-2.42-0.009-4.841-0.012-7.261,0.008c-1.959,0.016-2.942,1.13-2.934,3.27
		c0.008,1.974,1.104,3.155,2.973,3.164c2.646,0.014,5.293-0.002,7.939,0.008c4.329,0.017,7.625,3.337,7.693,7.66
		c0.039,2.465-0.471,4.678-2.472,6.322c-1.605,1.319-3.507,1.889-5.535,2.013C54.487,27.394,53.096,27.325,51.203,27.325z"/>
	<path fill-rule="evenodd" clip-rule="evenodd" fill="#FFFFFF" d="M146.179,16.053c0,2.806-0.02,5.612,0.01,8.418
		c0.012,1.131-0.447,1.942-1.452,2.399c-1.036,0.471-1.957,0.234-2.665-0.664c-0.31-0.393-0.552-0.381-0.959-0.104
		c-1.344,0.914-2.833,1.301-4.476,1.25c-2.03-0.063-4.063-0.009-6.096-0.014c-3.906-0.009-7.191-2.989-7.52-6.902
		c-0.231-2.757,0.206-5.339,2.352-7.362c1.174-1.106,2.544-1.756,4.166-1.767c3.645-0.024,7.29-0.043,10.934-0.007
		c0.841,0.008,1.179-0.218,1.101-1.087c-0.067-0.736,0.01-1.483-0.019-2.224c-0.069-1.815-1.199-2.927-3.015-2.938
		c-3.063-0.019-6.128-0.01-9.192-0.008c-0.617,0-1.226-0.04-1.8-0.284c-1.085-0.461-1.474-1.267-1.275-2.618
		c0.123-0.837,1.034-1.69,1.977-1.695c3.837-0.021,7.682-0.127,11.512,0.049c3.529,0.162,6.375,3.431,6.412,7.042
		C146.202,10.375,146.179,13.214,146.179,16.053z M135.316,15.911c0,0.001,0,0.003,0,0.004c-1.773,0-3.547,0.018-5.32-0.008
		c-0.791-0.011-1.371,0.302-1.785,0.946c-0.781,1.214-0.772,2.474-0.218,3.774c0.568,1.332,1.609,2.018,3.006,2.056
		c2.255,0.061,4.517,0.099,6.77,0.004c2.43-0.102,3.792-1.632,3.791-4.033c0-0.645-0.034-1.292,0.01-1.934
		c0.045-0.644-0.21-0.833-0.836-0.822C138.929,15.933,137.123,15.911,135.316,15.911z"/>
	<path fill-rule="evenodd" clip-rule="evenodd" fill="#FFFFFF" d="M199.992,16.22c-0.001,2.774,0.013,5.549-0.006,8.323
		c-0.012,1.745-1.647,2.986-3.128,2.41c-0.147-0.058-0.341-0.111-0.413-0.228c-0.722-1.177-1.52-0.667-2.376-0.171
		c-0.995,0.576-2.1,0.786-3.248,0.784c-2.162-0.005-4.323,0.01-6.484-0.002c-3.931-0.021-7.176-2.995-7.501-6.925
		c-0.238-2.878,0.256-5.536,2.583-7.554c1.082-0.938,2.315-1.534,3.759-1.545c3.709-0.03,7.419-0.048,11.128-0.013
		c0.851,0.008,1.172-0.237,1.09-1.095c-0.084-0.895,0.04-1.799-0.124-2.699c-0.287-1.585-1.221-2.445-2.844-2.457
		c-2.903-0.021-5.807-0.001-8.709-0.012c-0.578-0.002-1.159-0.043-1.734-0.11c-1.217-0.142-2.066-1.125-2.023-2.305
		c0.043-1.221,0.896-2.165,2.146-2.175c3.806-0.033,7.615-0.101,11.417,0.032c3.186,0.112,5.964,2.99,6.34,6.169
		c0.19,1.612,0.102,3.22,0.125,4.83C200.011,13.059,199.993,14.64,199.992,16.22z M187.985,22.701c0,0.006,0,0.013,0,0.02
		c1.064,0,2.128-0.009,3.193,0.003c0.69,0.008,1.359-0.125,1.972-0.408c1.15-0.533,2.132-1.269,2.218-2.672
		c0.06-0.996-0.004-1.999,0.023-2.998c0.015-0.529-0.154-0.746-0.714-0.743c-3.709,0.021-7.417,0.018-11.126,0.018
		c-0.636,0-1.131,0.285-1.482,0.776c-0.843,1.178-0.857,2.492-0.367,3.774c0.525,1.374,1.565,2.188,3.09,2.226
		C185.856,22.723,186.921,22.701,187.985,22.701z"/>
	<path fill-rule="evenodd" clip-rule="evenodd" fill="#56BBBC" d="M13.655,12.443c-3.938,0-7.875,0.002-11.812-0.001
		c-1.443-0.001-1.841-0.406-1.84-1.846C0.006,6.054,3.472,1.675,8.001,0.475c1.035-0.274,2.075-0.412,3.151-0.407
		c4.744,0.021,9.488,0.007,14.232,0.008c1.429,0,1.897,0.479,1.897,1.922c0,2.808,0.001,5.615-0.002,8.423
		c-0.002,1.557-0.476,2.026-2.006,2.026c-3.873-0.001-7.745,0-11.618,0C13.655,12.446,13.655,12.444,13.655,12.443z"/>
	<path fill-rule="evenodd" clip-rule="evenodd" fill="#56BBBC" d="M13.556,14.991c3.969,0,7.938,0,11.907,0
		c1.33,0,1.709,0.389,1.708,1.738c-0.008,5.17-4.02,9.719-9.2,10.473c-1.512,0.221-3.025,0.137-4.538,0.145
		c-3.775,0.021-7.551,0.012-11.326,0.013c-1.714,0-2.104-0.391-2.105-2.105C0,22.448-0.002,19.641,0.007,16.833
		c0.004-1.46,0.39-1.837,1.835-1.837c1.968,0,3.937,0.003,5.905,0.003c1.937,0.001,3.873,0,5.809,0
		C13.556,14.997,13.556,14.994,13.556,14.991z"/>
	<path fill-rule="evenodd" clip-rule="evenodd" fill="#FFFFFF" d="M119.655,16.268c0.001,2.872,0.014,5.743-0.005,8.614
		c-0.007,1.256-0.675,2.154-1.706,2.405c-1.057,0.258-2.141-0.262-2.678-1.259c-0.227-0.42-0.226-0.864-0.227-1.316
		c-0.009-5.355-0.021-10.711-0.028-16.066c-0.004-2.638-0.873-3.738-3.474-3.865c-2.441-0.119-4.899-0.187-7.344,0.086
		c-1.003,0.112-1.827,0.584-2.552,1.262c-0.546,0.511-0.801,1.103-0.797,1.882c0.025,5.581,0.007,11.162,0.018,16.744
		c0.002,1.032-0.408,1.829-1.28,2.334c-0.798,0.462-1.625,0.329-2.383-0.15c-0.745-0.471-1.082-1.208-1.083-2.053
		c-0.014-7.323-0.011-14.646-0.005-21.97c0.001-1.111,0.521-1.961,1.551-2.337c0.998-0.364,1.99-0.259,2.692,0.692
		c0.209,0.283,0.366,0.383,0.696,0.156c1.669-1.146,3.537-1.451,5.527-1.34c2.25,0.125,4.522-0.225,6.756,0.174
		c3.691,0.659,6.279,3.794,6.314,7.588C119.675,10.654,119.654,13.461,119.655,16.268z"/>
</g>
</svg>
